<?xml version="1.0" encoding="UTF-8"?>
<svg xmlns="http://www.w3.org/2000/svg" xmlns:xlink="http://www.w3.org/1999/xlink" width="672" height="480" viewBox="0 0 672 480">
<defs>
<g>
<g id="glyph-0-0-943d228c">
<path d="M 8.015625 -6.6875 C 8.015625 -5.125 6.921875 -4.015625 5.375 -4.015625 C 5.375 -4.015625 2.390625 -4.015625 2.390625 -4.015625 C 2.390625 -4.015625 2.390625 0 2.390625 0 C 2.390625 0 1.1875 0 1.1875 0 C 1.1875 0 1.1875 -9.484375 1.1875 -9.484375 C 1.1875 -9.484375 5.09375 -9.484375 5.09375 -9.484375 C 6.96875 -9.484375 8.015625 -8.46875 8.015625 -6.6875 Z M 6.765625 -6.75 C 6.765625 -7.78125 6.078125 -8.40625 4.90625 -8.40625 C 4.90625 -8.40625 2.390625 -8.40625 2.390625 -8.40625 C 2.390625 -8.40625 2.390625 -5.078125 2.390625 -5.078125 C 2.390625 -5.078125 4.90625 -5.078125 4.90625 -5.078125 C 6.078125 -5.078125 6.765625 -5.703125 6.765625 -6.75 Z M 6.765625 -6.75 "/>
</g>
<g id="glyph-0-1-943d228c">
<path d="M 5.96875 -1.90625 C 5.96875 -0.59375 4.875 0.1875 3.15625 0.1875 C 1.375 0.1875 0.5 -0.5 0.4375 -2.078125 C 0.4375 -2.078125 1.59375 -2.078125 1.59375 -2.078125 C 1.734375 -1.046875 2.28125 -0.8125 3.25 -0.8125 C 4.203125 -0.8125 4.84375 -1.1875 4.84375 -1.8125 C 4.84375 -2.3125 4.53125 -2.53125 3.78125 -2.71875 C 3.78125 -2.71875 2.765625 -2.96875 2.765625 -2.96875 C 1.15625 -3.359375 0.609375 -3.859375 0.609375 -4.921875 C 0.609375 -6.1875 1.640625 -7 3.21875 -7 C 4.796875 -7 5.6875 -6.25 5.6875 -4.90625 C 5.6875 -4.90625 4.546875 -4.90625 4.546875 -4.90625 C 4.53125 -5.625 4.0625 -6 3.1875 -6 C 2.296875 -6 1.734375 -5.609375 1.734375 -4.984375 C 1.734375 -4.5 2.125 -4.21875 3 -4 C 3 -4 4.046875 -3.75 4.046875 -3.75 C 5.390625 -3.4375 5.96875 -2.921875 5.96875 -1.90625 Z M 5.96875 -1.90625 "/>
</g>
<g id="glyph-0-2-943d228c">
</g>
<g id="glyph-0-3-943d228c">
<path d="M 9.890625 0 C 9.890625 0 8.75 0 8.75 0 C 8.75 0 8.75 -7.9375 8.75 -7.9375 C 8.75 -7.9375 6.078125 0 6.078125 0 C 6.078125 0 4.8125 0 4.8125 0 C 4.8125 0 2.125 -7.9375 2.125 -7.9375 C 2.125 -7.9375 2.125 0 2.125 0 C 2.125 0 0.96875 0 0.96875 0 C 0.96875 0 0.96875 -9.484375 0.96875 -9.484375 C 0.96875 -9.484375 2.65625 -9.484375 2.65625 -9.484375 C 2.65625 -9.484375 5.453125 -1.21875 5.453125 -1.21875 C 5.453125 -1.21875 8.21875 -9.484375 8.21875 -9.484375 C 8.21875 -9.484375 9.890625 -9.484375 9.890625 -9.484375 C 9.890625 -9.484375 9.890625 0 9.890625 0 Z M 9.890625 0 "/>
</g>
<g id="glyph-0-4-943d228c">
<path d="M 8.078125 -2.59375 C 8.078125 -0.90625 6.765625 0.234375 4.375 0.234375 C 2.125 0.234375 0.625 -0.84375 0.625 -3.078125 C 0.625 -3.078125 1.765625 -3.078125 1.765625 -3.078125 C 1.765625 -1.734375 2.65625 -0.828125 4.453125 -0.828125 C 6.078125 -0.828125 6.859375 -1.4375 6.859375 -2.484375 C 6.859375 -3.21875 6.3125 -3.703125 5.125 -4.015625 C 5.125 -4.015625 2.765625 -4.640625 2.765625 -4.640625 C 1.515625 -4.96875 0.90625 -5.6875 0.90625 -6.84375 C 0.90625 -8.5625 2.203125 -9.71875 4.28125 -9.71875 C 6.46875 -9.71875 7.75 -8.625 7.75 -6.765625 C 7.75 -6.765625 6.609375 -6.765625 6.609375 -6.765625 C 6.609375 -8.015625 5.75 -8.703125 4.234375 -8.703125 C 2.96875 -8.703125 2.125 -7.984375 2.125 -7.015625 C 2.125 -6.296875 2.53125 -5.921875 3.671875 -5.609375 C 3.671875 -5.609375 6.0625 -4.984375 6.0625 -4.984375 C 7.34375 -4.625 8.078125 -3.765625 8.078125 -2.59375 Z M 8.078125 -2.59375 "/>
</g>
<g id="glyph-0-5-943d228c">
<path d="M 4.171875 -5.859375 C 2.5 -5.84375 1.984375 -5.0625 1.984375 -3.53125 C 1.984375 -3.53125 1.984375 0 1.984375 0 C 1.984375 0 0.90625 0 0.90625 0 C 0.90625 0 0.90625 -6.8125 0.90625 -6.8125 C 0.90625 -6.8125 1.890625 -6.8125 1.890625 -6.8125 C 1.890625 -6.8125 1.890625 -5.578125 1.890625 -5.578125 C 2.515625 -6.59375 3.0625 -7 3.75 -7 C 3.90625 -7 3.984375 -7 4.171875 -6.96875 C 4.171875 -6.96875 4.171875 -5.859375 4.171875 -5.859375 Z M 4.171875 -5.859375 "/>
</g>
<g id="glyph-0-6-943d228c">
<path d="M 6.953125 -0.03125 C 6.609375 0.0625 6.4375 0.09375 6.21875 0.09375 C 5.6875 0.09375 5.21875 -0.28125 5.09375 -0.8125 C 4.5 -0.171875 3.65625 0.1875 2.78125 0.1875 C 1.40625 0.1875 0.546875 -0.53125 0.546875 -1.765625 C 0.546875 -2.59375 0.953125 -3.21875 1.734375 -3.53125 C 2.15625 -3.703125 2.390625 -3.75 3.921875 -3.953125 C 4.78125 -4.0625 5.0625 -4.25 5.0625 -4.703125 C 5.0625 -4.703125 5.0625 -4.984375 5.0625 -4.984375 C 5.0625 -5.640625 4.515625 -6 3.53125 -6 C 2.515625 -6 2.03125 -5.625 1.9375 -4.796875 C 1.9375 -4.796875 0.84375 -4.796875 0.84375 -4.796875 C 0.90625 -6.375 1.921875 -7 3.578125 -7 C 5.25 -7 6.140625 -6.359375 6.140625 -5.140625 C 6.140625 -5.140625 6.140625 -1.359375 6.140625 -1.359375 C 6.140625 -1.015625 6.34375 -0.8125 6.71875 -0.8125 C 6.78125 -0.8125 6.84375 -0.8125 6.953125 -0.84375 C 6.953125 -0.84375 6.953125 -0.03125 6.953125 -0.03125 Z M 5.0625 -2.359375 C 5.0625 -2.359375 5.0625 -3.359375 5.0625 -3.359375 C 4.6875 -3.203125 4.453125 -3.140625 3.3125 -2.984375 C 2.15625 -2.828125 1.671875 -2.515625 1.671875 -1.796875 C 1.671875 -1.046875 2.171875 -0.75 3.015625 -0.75 C 4.0625 -0.75 5.0625 -1.375 5.0625 -2.359375 Z M 5.0625 -2.359375 "/>
</g>
<g id="glyph-1-0-943d228c">
<path d="M 6.625 -3.359375 C 6.625 -1.125 5.453125 0.1875 3.546875 0.1875 C 1.609375 0.1875 0.46875 -1.125 0.46875 -3.40625 C 0.46875 -5.6875 1.625 -7 3.53125 -7 C 5.5 -7 6.625 -5.703125 6.625 -3.359375 Z M 5.5 -3.359375 C 5.5 -5.0625 4.765625 -6 3.546875 -6 C 2.34375 -6 1.59375 -5.046875 1.59375 -3.40625 C 1.59375 -1.75 2.34375 -0.8125 3.546875 -0.8125 C 4.75 -0.8125 5.5 -1.765625 5.5 -3.359375 Z M 5.5 -3.359375 "/>
</g>
<g id="glyph-1-1-943d228c">
<path d="M 4.171875 -5.859375 C 2.5 -5.84375 1.984375 -5.0625 1.984375 -3.53125 C 1.984375 -3.53125 1.984375 0 1.984375 0 C 1.984375 0 0.90625 0 0.90625 0 C 0.90625 0 0.90625 -6.8125 0.90625 -6.8125 C 0.90625 -6.8125 1.890625 -6.8125 1.890625 -6.8125 C 1.890625 -6.8125 1.890625 -5.578125 1.890625 -5.578125 C 2.515625 -6.59375 3.0625 -7 3.75 -7 C 3.90625 -7 3.984375 -7 4.171875 -6.96875 C 4.171875 -6.96875 4.171875 -5.859375 4.171875 -5.859375 Z M 4.171875 -5.859375 "/>
</g>
<g id="glyph-1-2-943d228c">
<path d="M 6.671875 -3.09375 C 6.671875 -3.09375 1.65625 -3.09375 1.65625 -3.09375 C 1.671875 -1.53125 2.515625 -0.8125 3.65625 -0.8125 C 4.53125 -0.8125 5.140625 -1.171875 5.4375 -2.0625 C 5.4375 -2.0625 6.53125 -2.0625 6.53125 -2.0625 C 6.25 -0.6875 5.171875 0.1875 3.609375 0.1875 C 1.703125 0.1875 0.515625 -1.125 0.515625 -3.359375 C 0.515625 -5.609375 1.734375 -7 3.640625 -7 C 4.90625 -7 5.953125 -6.328125 6.390625 -5.21875 C 6.59375 -4.703125 6.671875 -4.078125 6.671875 -3.09375 Z M 5.515625 -4.0625 C 5.515625 -5.125 4.6875 -6 3.625 -6 C 2.53125 -6 1.765625 -5.1875 1.671875 -3.984375 C 1.671875 -3.984375 5.5 -3.984375 5.5 -3.984375 C 5.515625 -4 5.515625 -4.0625 5.515625 -4.0625 Z M 5.515625 -4.0625 "/>
</g>
<g id="glyph-1-3-943d228c">
<path d="M 3.296875 0 C 2.9375 0.0625 2.671875 0.09375 2.421875 0.09375 C 1.578125 0.09375 1.109375 -0.296875 1.109375 -0.984375 C 1.109375 -0.984375 1.109375 -5.921875 1.109375 -5.921875 C 1.109375 -5.921875 0.1875 -5.921875 0.1875 -5.921875 C 0.1875 -5.921875 0.1875 -6.8125 0.1875 -6.8125 C 0.1875 -6.8125 1.109375 -6.8125 1.109375 -6.8125 C 1.109375 -6.8125 1.109375 -8.6875 1.109375 -8.6875 C 1.109375 -8.6875 2.1875 -8.6875 2.1875 -8.6875 C 2.1875 -8.6875 2.1875 -6.8125 2.1875 -6.8125 C 2.1875 -6.8125 3.296875 -6.8125 3.296875 -6.8125 C 3.296875 -6.8125 3.296875 -5.921875 3.296875 -5.921875 C 3.296875 -5.921875 2.1875 -5.921875 2.1875 -5.921875 C 2.1875 -5.921875 2.1875 -1.46875 2.1875 -1.46875 C 2.1875 -0.984375 2.3125 -0.859375 2.78125 -0.859375 C 2.984375 -0.859375 3.15625 -0.875 3.296875 -0.90625 C 3.296875 -0.90625 3.296875 0 3.296875 0 Z M 3.296875 0 "/>
</g>
<g id="glyph-2-0-943d228c">
<path d="M 3.296875 0 C 2.9375 0.0625 2.671875 0.09375 2.421875 0.09375 C 1.578125 0.09375 1.109375 -0.296875 1.109375 -0.984375 C 1.109375 -0.984375 1.109375 -5.921875 1.109375 -5.921875 C 1.109375 -5.921875 0.1875 -5.921875 0.1875 -5.921875 C 0.1875 -5.921875 0.1875 -6.8125 0.1875 -6.8125 C 0.1875 -6.8125 1.109375 -6.8125 1.109375 -6.8125 C 1.109375 -6.8125 1.109375 -8.6875 1.109375 -8.6875 C 1.109375 -8.6875 2.1875 -8.6875 2.1875 -8.6875 C 2.1875 -8.6875 2.1875 -6.8125 2.1875 -6.8125 C 2.1875 -6.8125 3.296875 -6.8125 3.296875 -6.8125 C 3.296875 -6.8125 3.296875 -5.921875 3.296875 -5.921875 C 3.296875 -5.921875 2.1875 -5.921875 2.1875 -5.921875 C 2.1875 -5.921875 2.1875 -1.46875 2.1875 -1.46875 C 2.1875 -0.984375 2.3125 -0.859375 2.78125 -0.859375 C 2.984375 -0.859375 3.15625 -0.875 3.296875 -0.90625 C 3.296875 -0.90625 3.296875 0 3.296875 0 Z M 3.296875 0 "/>
</g>
<g id="glyph-2-1-943d228c">
<path d="M 3.6875 -9.484375 C 3.6875 -9.484375 0.609375 0.265625 0.609375 0.265625 C 0.609375 0.265625 -0.109375 0.265625 -0.109375 0.265625 C -0.109375 0.265625 2.984375 -9.484375 2.984375 -9.484375 C 2.984375 -9.484375 3.6875 -9.484375 3.6875 -9.484375 Z M 3.6875 -9.484375 "/>
</g>
<g id="glyph-2-2-943d228c">
<path d="M 8.015625 -6.6875 C 8.015625 -5.125 6.921875 -4.015625 5.375 -4.015625 C 5.375 -4.015625 2.390625 -4.015625 2.390625 -4.015625 C 2.390625 -4.015625 2.390625 0 2.390625 0 C 2.390625 0 1.1875 0 1.1875 0 C 1.1875 0 1.1875 -9.484375 1.1875 -9.484375 C 1.1875 -9.484375 5.09375 -9.484375 5.09375 -9.484375 C 6.96875 -9.484375 8.015625 -8.46875 8.015625 -6.6875 Z M 6.765625 -6.75 C 6.765625 -7.78125 6.078125 -8.40625 4.90625 -8.40625 C 4.90625 -8.40625 2.390625 -8.40625 2.390625 -8.40625 C 2.390625 -8.40625 2.390625 -5.078125 2.390625 -5.078125 C 2.390625 -5.078125 4.90625 -5.078125 4.90625 -5.078125 C 6.078125 -5.078125 6.765625 -5.703125 6.765625 -6.75 Z M 6.765625 -6.75 "/>
</g>
<g id="glyph-2-3-943d228c">
<path d="M 7.96875 0 C 7.96875 0 1.171875 0 1.171875 0 C 1.171875 0 1.171875 -9.484375 1.171875 -9.484375 C 1.171875 -9.484375 7.734375 -9.484375 7.734375 -9.484375 C 7.734375 -9.484375 7.734375 -8.40625 7.734375 -8.40625 C 7.734375 -8.40625 2.375 -8.40625 2.375 -8.40625 C 2.375 -8.40625 2.375 -5.375 2.375 -5.375 C 2.375 -5.375 7.546875 -5.375 7.546875 -5.375 C 7.546875 -5.375 7.546875 -4.3125 7.546875 -4.3125 C 7.546875 -4.3125 2.375 -4.3125 2.375 -4.3125 C 2.375 -4.3125 2.375 -1.0625 2.375 -1.0625 C 2.375 -1.0625 7.96875 -1.0625 7.96875 -1.0625 C 7.96875 -1.0625 7.96875 0 7.96875 0 Z M 7.96875 0 "/>
</g>
<g id="glyph-2-4-943d228c">
</g>
<g id="glyph-2-5-943d228c">
<path d="M 1.984375 0 C 1.984375 0 0.90625 0 0.90625 0 C 0.90625 0 0.90625 -6.8125 0.90625 -6.8125 C 0.90625 -6.8125 1.984375 -6.8125 1.984375 -6.8125 C 1.984375 -6.8125 1.984375 0 1.984375 0 Z M 2.125 -7.84375 C 2.125 -7.84375 0.78125 -7.84375 0.78125 -7.84375 C 0.78125 -7.84375 0.78125 -9.1875 0.78125 -9.1875 C 0.78125 -9.1875 2.125 -9.1875 2.125 -9.1875 C 2.125 -9.1875 2.125 -7.84375 2.125 -7.84375 Z M 2.125 -7.84375 "/>
</g>
<g id="glyph-2-6-943d228c">
<path d="M 6.625 -3.359375 C 6.625 -1.125 5.453125 0.1875 3.546875 0.1875 C 1.609375 0.1875 0.46875 -1.125 0.46875 -3.40625 C 0.46875 -5.6875 1.625 -7 3.53125 -7 C 5.5 -7 6.625 -5.703125 6.625 -3.359375 Z M 5.5 -3.359375 C 5.5 -5.0625 4.765625 -6 3.546875 -6 C 2.34375 -6 1.59375 -5.046875 1.59375 -3.40625 C 1.59375 -1.75 2.34375 -0.8125 3.546875 -0.8125 C 4.75 -0.8125 5.5 -1.765625 5.5 -3.359375 Z M 5.5 -3.359375 "/>
</g>
<g id="glyph-3-0-943d228c">
<path d="M 6.59375 -4.4375 C 6.59375 -1.40625 5.53125 0.1875 3.578125 0.1875 C 1.59375 0.1875 0.5625 -1.40625 0.5625 -4.515625 C 0.5625 -7.609375 1.59375 -9.21875 3.578125 -9.21875 C 5.578125 -9.21875 6.59375 -7.625 6.59375 -4.4375 Z M 5.421875 -4.53125 C 5.421875 -7 4.8125 -8.203125 3.578125 -8.203125 C 2.34375 -8.203125 1.734375 -7.015625 1.734375 -4.5 C 1.734375 -1.96875 2.34375 -0.75 3.546875 -0.75 C 4.828125 -0.75 5.421875 -1.921875 5.421875 -4.53125 Z M 5.421875 -4.53125 "/>
</g>
<g id="glyph-4-0-943d228c">
<path d="M 6.640625 -6.515625 C 6.640625 -5.375 5.984375 -4.421875 4.6875 -3.734375 C 4.6875 -3.734375 3.390625 -3.03125 3.390625 -3.03125 C 2.265625 -2.359375 1.84375 -1.890625 1.734375 -1.125 C 1.734375 -1.125 6.578125 -1.125 6.578125 -1.125 C 6.578125 -1.125 6.578125 0 6.578125 0 C 6.578125 0 0.4375 0 0.4375 0 C 0.546875 -2.03125 1.109375 -2.90625 3.03125 -3.984375 C 3.03125 -3.984375 4.21875 -4.671875 4.21875 -4.671875 C 5.046875 -5.140625 5.46875 -5.765625 5.46875 -6.484375 C 5.46875 -7.46875 4.6875 -8.21875 3.65625 -8.21875 C 2.515625 -8.21875 1.890625 -7.5625 1.796875 -6.015625 C 1.796875 -6.015625 0.65625 -6.015625 0.65625 -6.015625 C 0.71875 -8.25 1.8125 -9.21875 3.6875 -9.21875 C 5.4375 -9.21875 6.640625 -8.078125 6.640625 -6.515625 Z M 6.640625 -6.515625 "/>
</g>
<g id="glyph-4-1-943d228c">
<path d="M 6.59375 -4.4375 C 6.59375 -1.40625 5.53125 0.1875 3.578125 0.1875 C 1.59375 0.1875 0.5625 -1.40625 0.5625 -4.515625 C 0.5625 -7.609375 1.59375 -9.21875 3.578125 -9.21875 C 5.578125 -9.21875 6.59375 -7.625 6.59375 -4.4375 Z M 5.421875 -4.53125 C 5.421875 -7 4.8125 -8.203125 3.578125 -8.203125 C 2.34375 -8.203125 1.734375 -7.015625 1.734375 -4.5 C 1.734375 -1.96875 2.34375 -0.75 3.546875 -0.75 C 4.828125 -0.75 5.421875 -1.921875 5.421875 -4.53125 Z M 5.421875 -4.53125 "/>
</g>
<g id="glyph-4-2-943d228c">
<path d="M 6.765625 -2.203125 C 6.765625 -2.203125 5.390625 -2.203125 5.390625 -2.203125 C 5.390625 -2.203125 5.390625 0 5.390625 0 C 5.390625 0 4.25 0 4.25 0 C 4.25 0 4.25 -2.203125 4.25 -2.203125 C 4.25 -2.203125 0.359375 -2.203125 0.359375 -2.203125 C 0.359375 -2.203125 0.359375 -3.421875 0.359375 -3.421875 C 0.359375 -3.421875 4.546875 -9.21875 4.546875 -9.21875 C 4.546875 -9.21875 5.390625 -9.21875 5.390625 -9.21875 C 5.390625 -9.21875 5.390625 -3.234375 5.390625 -3.234375 C 5.390625 -3.234375 6.765625 -3.234375 6.765625 -3.234375 C 6.765625 -3.234375 6.765625 -2.203125 6.765625 -2.203125 Z M 4.25 -3.234375 C 4.25 -3.234375 4.25 -7.265625 4.25 -7.265625 C 4.25 -7.265625 1.359375 -3.234375 1.359375 -3.234375 C 1.359375 -3.234375 4.25 -3.234375 4.25 -3.234375 Z M 4.25 -3.234375 "/>
</g>
<g id="glyph-4-3-943d228c">
<path d="M 8.796875 -3.453125 C 8.515625 -0.984375 7.21875 0.234375 4.90625 0.234375 C 2.125 0.234375 0.625 -1.859375 0.625 -4.625 C 0.625 -7.390625 2.078125 -9.71875 4.953125 -9.71875 C 7.03125 -9.71875 8.234375 -8.625 8.609375 -6.53125 C 8.609375 -6.53125 7.375 -6.53125 7.375 -6.53125 C 7.078125 -7.984375 6.296875 -8.640625 4.8125 -8.640625 C 2.984375 -8.640625 1.828125 -7.078125 1.828125 -4.640625 C 1.828125 -2.28125 3.03125 -0.828125 4.90625 -0.828125 C 6.515625 -0.828125 7.265625 -1.65625 7.546875 -3.453125 C 7.546875 -3.453125 8.796875 -3.453125 8.796875 -3.453125 Z M 8.796875 -3.453125 "/>
</g>
<g id="glyph-4-4-943d228c">
<path d="M 3.359375 -5.921875 C 3.359375 -5.921875 2.21875 -5.921875 2.21875 -5.921875 C 2.21875 -5.921875 2.21875 0 2.21875 0 C 2.21875 0 1.140625 0 1.140625 0 C 1.140625 0 1.140625 -5.921875 1.140625 -5.921875 C 1.140625 -5.921875 0.234375 -5.921875 0.234375 -5.921875 C 0.234375 -5.921875 0.234375 -6.8125 0.234375 -6.8125 C 0.234375 -6.8125 1.140625 -6.8125 1.140625 -6.8125 C 1.140625 -6.8125 1.140625 -7.96875 1.140625 -7.96875 C 1.140625 -8.9375 1.734375 -9.515625 2.75 -9.515625 C 2.96875 -9.515625 3.109375 -9.5 3.359375 -9.453125 C 3.359375 -9.453125 3.359375 -8.546875 3.359375 -8.546875 C 3.109375 -8.5625 3.0625 -8.5625 2.984375 -8.5625 C 2.484375 -8.5625 2.21875 -8.328125 2.21875 -7.875 C 2.21875 -7.875 2.21875 -6.8125 2.21875 -6.8125 C 2.21875 -6.8125 3.359375 -6.8125 3.359375 -6.8125 C 3.359375 -6.8125 3.359375 -5.921875 3.359375 -5.921875 Z M 3.359375 -5.921875 "/>
</g>
<g id="glyph-4-5-943d228c">
<path d="M 6.625 -3.359375 C 6.625 -1.125 5.453125 0.1875 3.546875 0.1875 C 1.609375 0.1875 0.46875 -1.125 0.46875 -3.40625 C 0.46875 -5.6875 1.625 -7 3.53125 -7 C 5.5 -7 6.625 -5.703125 6.625 -3.359375 Z M 5.5 -3.359375 C 5.5 -5.0625 4.765625 -6 3.546875 -6 C 2.34375 -6 1.59375 -5.046875 1.59375 -3.40625 C 1.59375 -1.75 2.34375 -0.8125 3.546875 -0.8125 C 4.75 -0.8125 5.5 -1.765625 5.5 -3.359375 Z M 5.5 -3.359375 "/>
</g>
<g id="glyph-4-6-943d228c">
<path d="M 4.171875 -5.859375 C 2.5 -5.84375 1.984375 -5.0625 1.984375 -3.53125 C 1.984375 -3.53125 1.984375 0 1.984375 0 C 1.984375 0 0.90625 0 0.90625 0 C 0.90625 0 0.90625 -6.8125 0.90625 -6.8125 C 0.90625 -6.8125 1.890625 -6.8125 1.890625 -6.8125 C 1.890625 -6.8125 1.890625 -5.578125 1.890625 -5.578125 C 2.515625 -6.59375 3.0625 -7 3.75 -7 C 3.90625 -7 3.984375 -7 4.171875 -6.96875 C 4.171875 -6.96875 4.171875 -5.859375 4.171875 -5.859375 Z M 4.171875 -5.859375 "/>
</g>
<g id="glyph-4-7-943d228c">
<path d="M 6.328125 0 C 6.328125 0 5.25 0 5.25 0 C 5.25 0 5.25 -4.71875 5.25 -4.71875 C 5.25 -5.53125 4.703125 -6.0625 3.84375 -6.0625 C 2.75 -6.0625 1.984375 -5.140625 1.984375 -3.75 C 1.984375 -3.75 1.984375 0 1.984375 0 C 1.984375 0 0.90625 0 0.90625 0 C 0.90625 0 0.90625 -6.8125 0.90625 -6.8125 C 0.90625 -6.8125 1.90625 -6.8125 1.90625 -6.8125 C 1.90625 -6.8125 1.90625 -5.671875 1.90625 -5.671875 C 2.515625 -6.609375 3.15625 -7 4.171875 -7 C 5.484375 -7 6.328125 -6.28125 6.328125 -5.140625 C 6.328125 -5.140625 6.328125 0 6.328125 0 Z M 6.328125 0 "/>
</g>
<g id="glyph-5-0-943d228c">
<path d="M 6.59375 -4.4375 C 6.59375 -1.40625 5.53125 0.1875 3.578125 0.1875 C 1.59375 0.1875 0.5625 -1.40625 0.5625 -4.515625 C 0.5625 -7.609375 1.59375 -9.21875 3.578125 -9.21875 C 5.578125 -9.21875 6.59375 -7.625 6.59375 -4.4375 Z M 5.421875 -4.53125 C 5.421875 -7 4.8125 -8.203125 3.578125 -8.203125 C 2.34375 -8.203125 1.734375 -7.015625 1.734375 -4.5 C 1.734375 -1.96875 2.34375 -0.75 3.546875 -0.75 C 4.828125 -0.75 5.421875 -1.921875 5.421875 -4.53125 Z M 5.421875 -4.53125 "/>
</g>
<g id="glyph-6-0-943d228c">
<path d="M 6.59375 -4.4375 C 6.59375 -1.40625 5.53125 0.1875 3.578125 0.1875 C 1.59375 0.1875 0.5625 -1.40625 0.5625 -4.515625 C 0.5625 -7.609375 1.59375 -9.21875 3.578125 -9.21875 C 5.578125 -9.21875 6.59375 -7.625 6.59375 -4.4375 Z M 5.421875 -4.53125 C 5.421875 -7 4.8125 -8.203125 3.578125 -8.203125 C 2.34375 -8.203125 1.734375 -7.015625 1.734375 -4.5 C 1.734375 -1.96875 2.34375 -0.75 3.546875 -0.75 C 4.828125 -0.75 5.421875 -1.921875 5.421875 -4.53125 Z M 5.421875 -4.53125 "/>
</g>
<g id="glyph-7-0-943d228c">
<path d="M -3.453125 -8.796875 C -0.984375 -8.515625 0.234375 -7.21875 0.234375 -4.90625 C 0.234375 -2.125 -1.859375 -0.625 -4.625 -0.625 C -7.390625 -0.625 -9.71875 -2.078125 -9.71875 -4.953125 C -9.71875 -7.03125 -8.625 -8.234375 -6.53125 -8.609375 C -6.53125 -8.609375 -6.53125 -7.375 -6.53125 -7.375 C -7.984375 -7.078125 -8.640625 -6.296875 -8.640625 -4.8125 C -8.640625 -2.984375 -7.078125 -1.828125 -4.640625 -1.828125 C -2.28125 -1.828125 -0.828125 -3.03125 -0.828125 -4.90625 C -0.828125 -6.515625 -1.65625 -7.265625 -3.453125 -7.546875 C -3.453125 -7.546875 -3.453125 -8.796875 -3.453125 -8.796875 Z M -3.453125 -8.796875 "/>
</g>
<g id="glyph-7-1-943d228c">
<path d="M -3.359375 -6.625 C -1.125 -6.625 0.1875 -5.453125 0.1875 -3.546875 C 0.1875 -1.609375 -1.125 -0.46875 -3.40625 -0.46875 C -5.6875 -0.46875 -7 -1.625 -7 -3.53125 C -7 -5.5 -5.703125 -6.625 -3.359375 -6.625 Z M -3.359375 -5.5 C -5.0625 -5.5 -6 -4.765625 -6 -3.546875 C -6 -2.34375 -5.046875 -1.59375 -3.40625 -1.59375 C -1.75 -1.59375 -0.8125 -2.34375 -0.8125 -3.546875 C -0.8125 -4.75 -1.765625 -5.5 -3.359375 -5.5 Z M -3.359375 -5.5 "/>
</g>
<g id="glyph-8-0-943d228c">
<path d="M 0 -6.265625 C 0 -6.265625 0 -5.296875 0 -5.296875 C 0 -5.296875 -1.046875 -5.296875 -1.046875 -5.296875 C -0.15625 -4.65625 0.1875 -4.015625 0.1875 -3.015625 C 0.1875 -1.6875 -0.53125 -0.84375 -1.65625 -0.84375 C -1.65625 -0.84375 -6.8125 -0.84375 -6.8125 -0.84375 C -6.8125 -0.84375 -6.8125 -1.921875 -6.8125 -1.921875 C -6.8125 -1.921875 -2.09375 -1.921875 -2.09375 -1.921875 C -1.28125 -1.921875 -0.75 -2.46875 -0.75 -3.328125 C -0.75 -4.453125 -1.65625 -5.1875 -3.0625 -5.1875 C -3.0625 -5.1875 -6.8125 -5.1875 -6.8125 -5.1875 C -6.8125 -5.1875 -6.8125 -6.265625 -6.8125 -6.265625 C -6.8125 -6.265625 0 -6.265625 0 -6.265625 Z M 0 -6.265625 "/>
</g>
<g id="glyph-9-0-943d228c">
<path d="M 0 -6.328125 C 0 -6.328125 0 -5.25 0 -5.25 C 0 -5.25 -4.71875 -5.25 -4.71875 -5.25 C -5.53125 -5.25 -6.0625 -4.703125 -6.0625 -3.84375 C -6.0625 -2.75 -5.140625 -1.984375 -3.75 -1.984375 C -3.75 -1.984375 0 -1.984375 0 -1.984375 C 0 -1.984375 0 -0.90625 0 -0.90625 C 0 -0.90625 -6.8125 -0.90625 -6.8125 -0.90625 C -6.8125 -0.90625 -6.8125 -1.90625 -6.8125 -1.90625 C -6.8125 -1.90625 -5.671875 -1.90625 -5.671875 -1.90625 C -6.609375 -2.515625 -7 -3.15625 -7 -4.171875 C -7 -5.484375 -6.28125 -6.328125 -5.140625 -6.328125 C -5.140625 -6.328125 0 -6.328125 0 -6.328125 Z M 0 -6.328125 "/>
</g>
<g id="glyph-10-0-943d228c">
<path d="M 0 -3.296875 C 0.0625 -2.9375 0.09375 -2.671875 0.09375 -2.421875 C 0.09375 -1.578125 -0.296875 -1.109375 -0.984375 -1.109375 C -0.984375 -1.109375 -5.921875 -1.109375 -5.921875 -1.109375 C -5.921875 -1.109375 -5.921875 -0.1875 -5.921875 -0.1875 C -5.921875 -0.1875 -6.8125 -0.1875 -6.8125 -0.1875 C -6.8125 -0.1875 -6.8125 -1.109375 -6.8125 -1.109375 C -6.8125 -1.109375 -8.6875 -1.109375 -8.6875 -1.109375 C -8.6875 -1.109375 -8.6875 -2.1875 -8.6875 -2.1875 C -8.6875 -2.1875 -6.8125 -2.1875 -6.8125 -2.1875 C -6.8125 -2.1875 -6.8125 -3.296875 -6.8125 -3.296875 C -6.8125 -3.296875 -5.921875 -3.296875 -5.921875 -3.296875 C -5.921875 -3.296875 -5.921875 -2.1875 -5.921875 -2.1875 C -5.921875 -2.1875 -1.46875 -2.1875 -1.46875 -2.1875 C -0.984375 -2.1875 -0.859375 -2.3125 -0.859375 -2.78125 C -0.859375 -2.984375 -0.875 -3.15625 -0.90625 -3.296875 C -0.90625 -3.296875 0 -3.296875 0 -3.296875 Z M 0 -3.296875 "/>
</g>
<g id="glyph-11-0-943d228c">
<path d="M 6.59375 -4.4375 C 6.59375 -1.40625 5.53125 0.1875 3.578125 0.1875 C 1.59375 0.1875 0.5625 -1.40625 0.5625 -4.515625 C 0.5625 -7.609375 1.59375 -9.21875 3.578125 -9.21875 C 5.578125 -9.21875 6.59375 -7.625 6.59375 -4.4375 Z M 5.421875 -4.53125 C 5.421875 -7 4.8125 -8.203125 3.578125 -8.203125 C 2.34375 -8.203125 1.734375 -7.015625 1.734375 -4.5 C 1.734375 -1.96875 2.34375 -0.75 3.546875 -0.75 C 4.828125 -0.75 5.421875 -1.921875 5.421875 -4.53125 Z M 5.421875 -4.53125 "/>
</g>
<g id="glyph-11-1-943d228c">
<path d="M 4.515625 0 C 4.515625 0 3.359375 0 3.359375 0 C 3.359375 0 3.359375 -6.5625 3.359375 -6.5625 C 3.359375 -6.5625 1.328125 -6.5625 1.328125 -6.5625 C 1.328125 -6.5625 1.328125 -7.390625 1.328125 -7.390625 C 3.09375 -7.609375 3.359375 -7.796875 3.75 -9.21875 C 3.75 -9.21875 4.515625 -9.21875 4.515625 -9.21875 C 4.515625 -9.21875 4.515625 0 4.515625 0 Z M 4.515625 0 "/>
</g>
<g id="glyph-11-2-943d228c">
<path d="M 6.640625 -6.515625 C 6.640625 -5.375 5.984375 -4.421875 4.6875 -3.734375 C 4.6875 -3.734375 3.390625 -3.03125 3.390625 -3.03125 C 2.265625 -2.359375 1.84375 -1.890625 1.734375 -1.125 C 1.734375 -1.125 6.578125 -1.125 6.578125 -1.125 C 6.578125 -1.125 6.578125 0 6.578125 0 C 6.578125 0 0.4375 0 0.4375 0 C 0.546875 -2.03125 1.109375 -2.90625 3.03125 -3.984375 C 3.03125 -3.984375 4.21875 -4.671875 4.21875 -4.671875 C 5.046875 -5.140625 5.46875 -5.765625 5.46875 -6.484375 C 5.46875 -7.46875 4.6875 -8.21875 3.65625 -8.21875 C 2.515625 -8.21875 1.890625 -7.5625 1.796875 -6.015625 C 1.796875 -6.015625 0.65625 -6.015625 0.65625 -6.015625 C 0.71875 -8.25 1.8125 -9.21875 3.6875 -9.21875 C 5.4375 -9.21875 6.640625 -8.078125 6.640625 -6.515625 Z M 6.640625 -6.515625 "/>
</g>
<g id="glyph-12-0-943d228c">
<path d="M 10.09375 0 C 10.09375 0 8.140625 0 8.140625 0 C 8.140625 0 8.140625 -7.390625 8.140625 -7.390625 C 8.140625 -7.390625 6.46875 0 6.46875 0 C 6.46875 0 4.515625 0 4.515625 0 C 4.515625 0 2.8125 -7.390625 2.8125 -7.390625 C 2.8125 -7.390625 2.8125 0 2.8125 0 C 2.8125 0 0.859375 0 0.859375 0 C 0.859375 0 0.859375 -9.484375 0.859375 -9.484375 C 0.859375 -9.484375 3.765625 -9.484375 3.765625 -9.484375 C 3.765625 -9.484375 5.484375 -1.9375 5.484375 -1.9375 C 5.484375 -1.9375 7.15625 -9.484375 7.15625 -9.484375 C 7.15625 -9.484375 10.09375 -9.484375 10.09375 -9.484375 C 10.09375 -9.484375 10.09375 0 10.09375 0 Z M 10.09375 0 "/>
</g>
<g id="glyph-12-1-943d228c">
<path d="M 8.234375 -2.84375 C 8.234375 -0.921875 6.78125 0.15625 4.34375 0.15625 C 1.921875 0.15625 0.421875 -0.953125 0.421875 -2.984375 C 0.421875 -2.984375 2.3125 -2.984375 2.3125 -2.984375 C 2.3125 -1.96875 3.125 -1.40625 4.453125 -1.40625 C 5.625 -1.40625 6.359375 -1.8125 6.359375 -2.609375 C 6.359375 -3.375 5.875 -3.65625 4.578125 -3.90625 C 4.578125 -3.90625 3.25 -4.171875 3.25 -4.171875 C 1.328125 -4.546875 0.578125 -5.234375 0.578125 -6.71875 C 0.578125 -8.5625 1.890625 -9.640625 4.171875 -9.640625 C 6.484375 -9.640625 7.890625 -8.59375 7.890625 -6.59375 C 7.890625 -6.59375 6.078125 -6.59375 6.078125 -6.59375 C 6.078125 -7.546875 5.3125 -8.078125 4.078125 -8.078125 C 3.078125 -8.078125 2.4375 -7.625 2.4375 -6.90625 C 2.4375 -6.21875 2.84375 -5.9375 4.234375 -5.671875 C 4.234375 -5.671875 5.71875 -5.375 5.71875 -5.375 C 7.46875 -5.046875 8.234375 -4.34375 8.234375 -2.84375 Z M 8.234375 -2.84375 "/>
</g>
<g id="glyph-12-2-943d228c">
<path d="M 4.8125 -5.28125 C 4.5625 -5.3125 4.4375 -5.328125 4.234375 -5.328125 C 3.171875 -5.328125 2.640625 -4.796875 2.640625 -3.734375 C 2.640625 -3.734375 2.640625 0 2.640625 0 C 2.640625 0 0.8125 0 0.8125 0 C 0.8125 0 0.8125 -7.015625 0.8125 -7.015625 C 0.8125 -7.015625 2.640625 -7.015625 2.640625 -7.015625 C 2.640625 -7.015625 2.640625 -5.640625 2.640625 -5.640625 C 3.03125 -6.59375 3.75 -7.140625 4.59375 -7.140625 C 4.640625 -7.140625 4.703125 -7.140625 4.8125 -7.125 C 4.8125 -7.125 4.8125 -5.28125 4.8125 -5.28125 Z M 4.8125 -5.28125 "/>
</g>
<g id="glyph-12-3-943d228c">
<path d="M 6.8125 0 C 6.8125 0 4.84375 0 4.84375 0 C 4.671875 -0.203125 4.625 -0.515625 4.625 -0.890625 C 3.984375 -0.21875 3.28125 0.109375 2.5 0.109375 C 1.328125 0.109375 0.359375 -0.53125 0.359375 -1.890625 C 0.359375 -3.171875 1.046875 -3.765625 2.4375 -4.015625 C 2.4375 -4.015625 3.15625 -4.140625 3.15625 -4.140625 C 4.0625 -4.296875 4.609375 -4.21875 4.609375 -4.96875 C 4.609375 -5.4375 4.265625 -5.671875 3.5625 -5.671875 C 2.671875 -5.671875 2.359375 -5.4375 2.28125 -4.703125 C 2.28125 -4.703125 0.515625 -4.703125 0.515625 -4.703125 C 0.640625 -6.328125 1.625 -7.140625 3.515625 -7.140625 C 5.421875 -7.140625 6.390625 -6.40625 6.390625 -4.984375 C 6.390625 -4.984375 6.390625 -1.078125 6.390625 -1.078125 C 6.390625 -0.71875 6.484375 -0.515625 6.8125 -0.21875 C 6.8125 -0.21875 6.8125 0 6.8125 0 Z M 4.609375 -3 C 4.609375 -3 4.609375 -3.3125 4.609375 -3.3125 C 4.40625 -3.21875 4.328125 -3.1875 3.84375 -3.09375 C 3.84375 -3.09375 3.21875 -2.984375 3.21875 -2.984375 C 2.46875 -2.828125 2.1875 -2.640625 2.1875 -2.109375 C 2.1875 -1.59375 2.5625 -1.359375 3.171875 -1.359375 C 4.09375 -1.359375 4.609375 -1.953125 4.609375 -3 Z M 4.609375 -3 "/>
</g>
<g id="glyph-12-4-943d228c">
<path d="M 7.390625 -3.453125 C 7.390625 -1.203125 6.0625 0.109375 3.921875 0.109375 C 1.765625 0.109375 0.453125 -1.203125 0.453125 -3.515625 C 0.453125 -5.8125 1.765625 -7.140625 3.90625 -7.140625 C 6.109375 -7.140625 7.390625 -5.84375 7.390625 -3.453125 Z M 5.578125 -3.484375 C 5.578125 -4.859375 4.921875 -5.671875 3.921875 -5.671875 C 2.9375 -5.671875 2.28125 -4.84375 2.28125 -3.515625 C 2.28125 -2.171875 2.9375 -1.359375 3.921875 -1.359375 C 4.90625 -1.359375 5.578125 -2.171875 5.578125 -3.484375 Z M 5.578125 -3.484375 "/>
</g>
<g id="glyph-12-5-943d228c">
<path d="M 7.078125 0 C 7.078125 0 5.265625 0 5.265625 0 C 5.265625 0 5.265625 -0.8125 5.265625 -0.8125 C 4.8125 -0.203125 4.203125 0.109375 3.328125 0.109375 C 1.46875 0.109375 0.375 -1.515625 0.375 -3.5 C 0.375 -5.609375 1.65625 -7.140625 3.328125 -7.140625 C 4.203125 -7.140625 4.8125 -6.8125 5.265625 -6.109375 C 5.265625 -6.109375 5.265625 -9.484375 5.265625 -9.484375 C 5.265625 -9.484375 7.078125 -9.484375 7.078125 -9.484375 C 7.078125 -9.484375 7.078125 0 7.078125 0 Z M 5.265625 -3.46875 C 5.265625 -4.8125 4.65625 -5.609375 3.734375 -5.609375 C 2.828125 -5.609375 2.203125 -4.796875 2.203125 -3.5 C 2.203125 -2.203125 2.828125 -1.40625 3.734375 -1.40625 C 4.640625 -1.40625 5.265625 -2.203125 5.265625 -3.46875 Z M 5.265625 -3.46875 "/>
</g>
<g id="glyph-12-6-943d228c">
<path d="M 6.765625 -2.078125 C 6.765625 -0.65625 5.671875 0.109375 3.6875 0.109375 C 1.5625 0.109375 0.421875 -0.6875 0.375 -2.21875 C 0.375 -2.21875 2.15625 -2.21875 2.15625 -2.21875 C 2.3125 -1.46875 2.75 -1.3125 3.59375 -1.3125 C 4.4375 -1.3125 4.9375 -1.484375 4.9375 -1.90625 C 4.9375 -2.109375 4.78125 -2.25 4.328125 -2.390625 C 4.328125 -2.390625 2.15625 -3.0625 2.15625 -3.0625 C 0.859375 -3.46875 0.625 -3.9375 0.625 -4.796875 C 0.625 -6.234375 1.734375 -7.140625 3.515625 -7.140625 C 5.390625 -7.140625 6.53125 -6.234375 6.5625 -4.765625 C 6.5625 -4.765625 4.8125 -4.765625 4.8125 -4.765625 C 4.796875 -5.390625 4.375 -5.703125 3.5 -5.703125 C 2.859375 -5.703125 2.4375 -5.453125 2.4375 -5.0625 C 2.4375 -4.765625 2.578125 -4.65625 3.078125 -4.515625 C 3.078125 -4.515625 5.375 -3.84375 5.375 -3.84375 C 6.3125 -3.578125 6.765625 -2.984375 6.765625 -2.171875 C 6.765625 -2.171875 6.765625 -2.078125 6.765625 -2.078125 Z M 6.765625 -2.078125 "/>
</g>
<g id="glyph-12-7-943d228c">
<path d="M 3.90625 0 C 3.59375 0.015625 3.265625 0.046875 2.859375 0.046875 C 1.65625 0.046875 1.078125 -0.40625 1.078125 -1.515625 C 1.078125 -1.515625 1.078125 -5.671875 1.078125 -5.671875 C 1.078125 -5.671875 0.1875 -5.671875 0.1875 -5.671875 C 0.1875 -5.671875 0.1875 -6.875 0.1875 -6.875 C 0.1875 -6.875 1.078125 -6.875 1.078125 -6.875 C 1.078125 -6.875 1.078125 -8.765625 1.078125 -8.765625 C 1.078125 -8.765625 2.90625 -8.765625 2.90625 -8.765625 C 2.90625 -8.765625 2.90625 -6.875 2.90625 -6.875 C 2.90625 -6.875 3.90625 -6.875 3.90625 -6.875 C 3.90625 -6.875 3.90625 -5.671875 3.90625 -5.671875 C 3.90625 -5.671875 2.90625 -5.671875 2.90625 -5.671875 C 2.90625 -5.671875 2.90625 -2 2.90625 -2 C 2.90625 -1.375 3.015625 -1.234375 3.5 -1.234375 C 3.625 -1.234375 3.734375 -1.25 3.90625 -1.28125 C 3.90625 -1.28125 3.90625 0 3.90625 0 Z M 3.90625 0 "/>
</g>
<g id="glyph-12-8-943d228c">
<path d="M 7.03125 0 C 7.03125 0 5.21875 0 5.21875 0 C 5.21875 0 5.21875 -0.921875 5.21875 -0.921875 C 4.6875 -0.234375 4.0625 0.109375 3.109375 0.109375 C 1.609375 0.109375 0.75 -0.765625 0.75 -2.3125 C 0.75 -2.3125 0.75 -7.015625 0.75 -7.015625 C 0.75 -7.015625 2.578125 -7.015625 2.578125 -7.015625 C 2.578125 -7.015625 2.578125 -2.6875 2.578125 -2.6875 C 2.578125 -1.84375 2.96875 -1.4375 3.75 -1.4375 C 4.625 -1.4375 5.21875 -1.96875 5.21875 -2.8125 C 5.21875 -2.8125 5.21875 -7.015625 5.21875 -7.015625 C 5.21875 -7.015625 7.03125 -7.015625 7.03125 -7.015625 C 7.03125 -7.015625 7.03125 0 7.03125 0 Z M 7.03125 0 "/>
</g>
<g id="glyph-12-9-943d228c">
<path d="M 2.6875 0 C 2.6875 0 0.875 0 0.875 0 C 0.875 0 0.875 -7.015625 0.875 -7.015625 C 0.875 -7.015625 2.6875 -7.015625 2.6875 -7.015625 C 2.6875 -7.015625 2.6875 0 2.6875 0 Z M 2.71875 -7.859375 C 2.71875 -7.859375 0.890625 -7.859375 0.890625 -7.859375 C 0.890625 -7.859375 0.890625 -9.6875 0.890625 -9.6875 C 0.890625 -9.6875 2.71875 -9.6875 2.71875 -9.6875 C 2.71875 -9.6875 2.71875 -7.859375 2.71875 -7.859375 Z M 2.71875 -7.859375 "/>
</g>
<g id="glyph-12-10-943d228c">
<path d="M 7.09375 0 C 7.09375 0 5.28125 0 5.28125 0 C 5.28125 0 5.28125 -4.328125 5.28125 -4.328125 C 5.28125 -5.15625 4.890625 -5.59375 4.109375 -5.59375 C 3.21875 -5.59375 2.640625 -5.046875 2.640625 -4.21875 C 2.640625 -4.21875 2.640625 0 2.640625 0 C 2.640625 0 0.8125 0 0.8125 0 C 0.8125 0 0.8125 -7.015625 0.8125 -7.015625 C 0.8125 -7.015625 2.640625 -7.015625 2.640625 -7.015625 C 2.640625 -7.015625 2.640625 -6 2.640625 -6 C 3.15625 -6.78125 3.796875 -7.140625 4.75 -7.140625 C 6.234375 -7.140625 7.09375 -6.25 7.09375 -4.703125 C 7.09375 -4.703125 7.09375 0 7.09375 0 Z M 7.09375 0 "/>
</g>
<g id="glyph-13-0-943d228c">
<path d="M 8.234375 -6.53125 C 8.234375 -4.609375 7.109375 -3.375 5.375 -3.375 C 5.375 -3.375 2.9375 -3.375 2.9375 -3.375 C 2.9375 -3.375 2.9375 0 2.9375 0 C 2.9375 0 0.984375 0 0.984375 0 C 0.984375 0 0.984375 -9.484375 0.984375 -9.484375 C 0.984375 -9.484375 5.171875 -9.484375 5.171875 -9.484375 C 7.15625 -9.484375 8.234375 -8.4375 8.234375 -6.53125 Z M 6.28125 -6.421875 C 6.28125 -7.390625 5.796875 -7.859375 4.765625 -7.859375 C 4.765625 -7.859375 2.9375 -7.859375 2.9375 -7.859375 C 2.9375 -7.859375 2.9375 -5 2.9375 -5 C 2.9375 -5 4.765625 -5 4.765625 -5 C 5.796875 -5 6.28125 -5.453125 6.28125 -6.421875 Z M 6.28125 -6.421875 "/>
</g>
<g id="glyph-13-1-943d228c">
<path d="M 8.109375 0 C 8.109375 0 1.03125 0 1.03125 0 C 1.03125 0 1.03125 -9.484375 1.03125 -9.484375 C 1.03125 -9.484375 7.875 -9.484375 7.875 -9.484375 C 7.875 -9.484375 7.875 -7.859375 7.875 -7.859375 C 7.875 -7.859375 2.984375 -7.859375 2.984375 -7.859375 C 2.984375 -7.859375 2.984375 -5.703125 2.984375 -5.703125 C 2.984375 -5.703125 7.515625 -5.703125 7.515625 -5.703125 C 7.515625 -5.703125 7.515625 -4.078125 7.515625 -4.078125 C 7.515625 -4.078125 2.984375 -4.078125 2.984375 -4.078125 C 2.984375 -4.078125 2.984375 -1.625 2.984375 -1.625 C 2.984375 -1.625 8.109375 -1.625 8.109375 -1.625 C 8.109375 -1.625 8.109375 0 8.109375 0 Z M 8.109375 0 "/>
</g>
<g id="glyph-13-2-943d228c">
</g>
<g id="glyph-13-3-943d228c">
<path d="M 3.90625 0 C 3.59375 0.015625 3.265625 0.046875 2.859375 0.046875 C 1.65625 0.046875 1.078125 -0.40625 1.078125 -1.515625 C 1.078125 -1.515625 1.078125 -5.671875 1.078125 -5.671875 C 1.078125 -5.671875 0.1875 -5.671875 0.1875 -5.671875 C 0.1875 -5.671875 0.1875 -6.875 0.1875 -6.875 C 0.1875 -6.875 1.078125 -6.875 1.078125 -6.875 C 1.078125 -6.875 1.078125 -8.765625 1.078125 -8.765625 C 1.078125 -8.765625 2.90625 -8.765625 2.90625 -8.765625 C 2.90625 -8.765625 2.90625 -6.875 2.90625 -6.875 C 2.90625 -6.875 3.90625 -6.875 3.90625 -6.875 C 3.90625 -6.875 3.90625 -5.671875 3.90625 -5.671875 C 3.90625 -5.671875 2.90625 -5.671875 2.90625 -5.671875 C 2.90625 -5.671875 2.90625 -2 2.90625 -2 C 2.90625 -1.375 3.015625 -1.234375 3.5 -1.234375 C 3.625 -1.234375 3.734375 -1.25 3.90625 -1.28125 C 3.90625 -1.28125 3.90625 0 3.90625 0 Z M 3.90625 0 "/>
</g>
<g id="glyph-13-4-943d228c">
<path d="M 2.6875 0 C 2.6875 0 0.875 0 0.875 0 C 0.875 0 0.875 -7.015625 0.875 -7.015625 C 0.875 -7.015625 2.6875 -7.015625 2.6875 -7.015625 C 2.6875 -7.015625 2.6875 0 2.6875 0 Z M 2.71875 -7.859375 C 2.71875 -7.859375 0.890625 -7.859375 0.890625 -7.859375 C 0.890625 -7.859375 0.890625 -9.6875 0.890625 -9.6875 C 0.890625 -9.6875 2.71875 -9.6875 2.71875 -9.6875 C 2.71875 -9.6875 2.71875 -7.859375 2.71875 -7.859375 Z M 2.71875 -7.859375 "/>
</g>
<g id="glyph-13-5-943d228c">
<path d="M 7.46875 -3.421875 C 7.46875 -1.296875 6.203125 0.109375 4.53125 0.109375 C 3.640625 0.109375 3.03125 -0.203125 2.59375 -0.8125 C 2.59375 -0.8125 2.59375 0 2.59375 0 C 2.59375 0 0.765625 0 0.765625 0 C 0.765625 0 0.765625 -9.484375 0.765625 -9.484375 C 0.765625 -9.484375 2.59375 -9.484375 2.59375 -9.484375 C 2.59375 -9.484375 2.59375 -6.109375 2.59375 -6.109375 C 3.03125 -6.8125 3.65625 -7.140625 4.53125 -7.140625 C 6.375 -7.140625 7.46875 -5.40625 7.46875 -3.421875 Z M 5.65625 -3.5 C 5.65625 -4.796875 5.015625 -5.609375 4.125 -5.609375 C 3.21875 -5.609375 2.59375 -4.8125 2.59375 -3.53125 C 2.59375 -2.203125 3.203125 -1.40625 4.125 -1.40625 C 5.015625 -1.40625 5.65625 -2.21875 5.65625 -3.5 Z M 5.65625 -3.5 "/>
</g>
<g id="glyph-14-0-943d228c">
</g>
<g id="glyph-14-1-943d228c">
<path d="M 4.8125 -5.28125 C 4.5625 -5.3125 4.4375 -5.328125 4.234375 -5.328125 C 3.171875 -5.328125 2.640625 -4.796875 2.640625 -3.734375 C 2.640625 -3.734375 2.640625 0 2.640625 0 C 2.640625 0 0.8125 0 0.8125 0 C 0.8125 0 0.8125 -7.015625 0.8125 -7.015625 C 0.8125 -7.015625 2.640625 -7.015625 2.640625 -7.015625 C 2.640625 -7.015625 2.640625 -5.640625 2.640625 -5.640625 C 3.03125 -6.59375 3.75 -7.140625 4.59375 -7.140625 C 4.640625 -7.140625 4.703125 -7.140625 4.8125 -7.125 C 4.8125 -7.125 4.8125 -5.28125 4.8125 -5.28125 Z M 4.8125 -5.28125 "/>
</g>
<g id="glyph-14-2-943d228c">
<path d="M 3.90625 0 C 3.59375 0.015625 3.265625 0.046875 2.859375 0.046875 C 1.65625 0.046875 1.078125 -0.40625 1.078125 -1.515625 C 1.078125 -1.515625 1.078125 -5.671875 1.078125 -5.671875 C 1.078125 -5.671875 0.1875 -5.671875 0.1875 -5.671875 C 0.1875 -5.671875 0.1875 -6.875 0.1875 -6.875 C 0.1875 -6.875 1.078125 -6.875 1.078125 -6.875 C 1.078125 -6.875 1.078125 -8.765625 1.078125 -8.765625 C 1.078125 -8.765625 2.90625 -8.765625 2.90625 -8.765625 C 2.90625 -8.765625 2.90625 -6.875 2.90625 -6.875 C 2.90625 -6.875 3.90625 -6.875 3.90625 -6.875 C 3.90625 -6.875 3.90625 -5.671875 3.90625 -5.671875 C 3.90625 -5.671875 2.90625 -5.671875 2.90625 -5.671875 C 2.90625 -5.671875 2.90625 -2 2.90625 -2 C 2.90625 -1.375 3.015625 -1.234375 3.5 -1.234375 C 3.625 -1.234375 3.734375 -1.25 3.90625 -1.28125 C 3.90625 -1.28125 3.90625 0 3.90625 0 Z M 3.90625 0 "/>
</g>
<g id="glyph-14-3-943d228c">
<path d="M 7.390625 -3.453125 C 7.390625 -1.203125 6.0625 0.109375 3.921875 0.109375 C 1.765625 0.109375 0.453125 -1.203125 0.453125 -3.515625 C 0.453125 -5.8125 1.765625 -7.140625 3.90625 -7.140625 C 6.109375 -7.140625 7.390625 -5.84375 7.390625 -3.453125 Z M 5.578125 -3.484375 C 5.578125 -4.859375 4.921875 -5.671875 3.921875 -5.671875 C 2.9375 -5.671875 2.28125 -4.84375 2.28125 -3.515625 C 2.28125 -2.171875 2.9375 -1.359375 3.921875 -1.359375 C 4.90625 -1.359375 5.578125 -2.171875 5.578125 -3.484375 Z M 5.578125 -3.484375 "/>
</g>
<g id="glyph-15-0-943d228c">
<path d="M 6.953125 -0.03125 C 6.609375 0.0625 6.4375 0.09375 6.21875 0.09375 C 5.6875 0.09375 5.21875 -0.28125 5.09375 -0.8125 C 4.5 -0.171875 3.65625 0.1875 2.78125 0.1875 C 1.40625 0.1875 0.546875 -0.53125 0.546875 -1.765625 C 0.546875 -2.59375 0.953125 -3.21875 1.734375 -3.53125 C 2.15625 -3.703125 2.390625 -3.75 3.921875 -3.953125 C 4.78125 -4.0625 5.0625 -4.25 5.0625 -4.703125 C 5.0625 -4.703125 5.0625 -4.984375 5.0625 -4.984375 C 5.0625 -5.640625 4.515625 -6 3.53125 -6 C 2.515625 -6 2.03125 -5.625 1.9375 -4.796875 C 1.9375 -4.796875 0.84375 -4.796875 0.84375 -4.796875 C 0.90625 -6.375 1.921875 -7 3.578125 -7 C 5.25 -7 6.140625 -6.359375 6.140625 -5.140625 C 6.140625 -5.140625 6.140625 -1.359375 6.140625 -1.359375 C 6.140625 -1.015625 6.34375 -0.8125 6.71875 -0.8125 C 6.78125 -0.8125 6.84375 -0.8125 6.953125 -0.84375 C 6.953125 -0.84375 6.953125 -0.03125 6.953125 -0.03125 Z M 5.0625 -2.359375 C 5.0625 -2.359375 5.0625 -3.359375 5.0625 -3.359375 C 4.6875 -3.203125 4.453125 -3.140625 3.3125 -2.984375 C 2.15625 -2.828125 1.671875 -2.515625 1.671875 -1.796875 C 1.671875 -1.046875 2.171875 -0.75 3.015625 -0.75 C 4.0625 -0.75 5.0625 -1.375 5.0625 -2.359375 Z M 5.0625 -2.359375 "/>
</g>
<g id="glyph-15-1-943d228c">
<path d="M 1.96875 0 C 1.96875 0 0.890625 0 0.890625 0 C 0.890625 0 0.890625 -9.484375 0.890625 -9.484375 C 0.890625 -9.484375 1.96875 -9.484375 1.96875 -9.484375 C 1.96875 -9.484375 1.96875 0 1.96875 0 Z M 1.96875 0 "/>
</g>
<g id="glyph-15-2-943d228c">
<path d="M 1.984375 0 C 1.984375 0 0.90625 0 0.90625 0 C 0.90625 0 0.90625 -6.8125 0.90625 -6.8125 C 0.90625 -6.8125 1.984375 -6.8125 1.984375 -6.8125 C 1.984375 -6.8125 1.984375 0 1.984375 0 Z M 2.125 -7.84375 C 2.125 -7.84375 0.78125 -7.84375 0.78125 -7.84375 C 0.78125 -7.84375 0.78125 -9.1875 0.78125 -9.1875 C 0.78125 -9.1875 2.125 -9.1875 2.125 -9.1875 C 2.125 -9.1875 2.125 -7.84375 2.125 -7.84375 Z M 2.125 -7.84375 "/>
</g>
<g id="glyph-16-0-943d228c">
<path d="M 1.984375 0 C 1.984375 0 0.90625 0 0.90625 0 C 0.90625 0 0.90625 -6.8125 0.90625 -6.8125 C 0.90625 -6.8125 1.984375 -6.8125 1.984375 -6.8125 C 1.984375 -6.8125 1.984375 0 1.984375 0 Z M 2.125 -7.84375 C 2.125 -7.84375 0.78125 -7.84375 0.78125 -7.84375 C 0.78125 -7.84375 0.78125 -9.1875 0.78125 -9.1875 C 0.78125 -9.1875 2.125 -9.1875 2.125 -9.1875 C 2.125 -9.1875 2.125 -7.84375 2.125 -7.84375 Z M 2.125 -7.84375 "/>
</g>
</g>
<clipPath id="clip-0-943d228c">
<path clip-rule="nonzero" d="M 242 35 L 245 35 L 245 424 L 242 424 Z M 242 35 "/>
</clipPath>
</defs>
<rect x="-67.2" y="-48" width="806.4" height="576" fill="rgb(100%, 100%, 100%)" fill-opacity="1"/>
<path fill-rule="nonzero" fill="rgb(100%, 100%, 100%)" fill-opacity="1" d="M 60 424 L 656 424 L 656 35 L 60 35 Z M 60 424 "/>
<path fill="none" stroke-width="1" stroke-linecap="butt" stroke-linejoin="miter" stroke="rgb(0%, 0%, 0%)" stroke-opacity="0.12" stroke-miterlimit="1.154701" d="M 87.050781 424 L 87.050781 35 "/>
<path fill="none" stroke-width="1" stroke-linecap="butt" stroke-linejoin="miter" stroke="rgb(0%, 0%, 0%)" stroke-opacity="0.12" stroke-miterlimit="1.154701" d="M 289.234375 424 L 289.234375 35 "/>
<path fill="none" stroke-width="1" stroke-linecap="butt" stroke-linejoin="miter" stroke="rgb(0%, 0%, 0%)" stroke-opacity="0.12" stroke-miterlimit="1.154701" d="M 491.421875 424 L 491.421875 35 "/>
<path fill="none" stroke-width="1" stroke-linecap="butt" stroke-linejoin="miter" stroke="rgb(0%, 0%, 0%)" stroke-opacity="0.12" stroke-miterlimit="1.154701" d="M 60 406.316406 L 656 406.316406 "/>
<path fill="none" stroke-width="1" stroke-linecap="butt" stroke-linejoin="miter" stroke="rgb(0%, 0%, 0%)" stroke-opacity="0.12" stroke-miterlimit="1.154701" d="M 60 270.304688 L 656 270.304688 "/>
<path fill="none" stroke-width="1" stroke-linecap="butt" stroke-linejoin="miter" stroke="rgb(0%, 0%, 0%)" stroke-opacity="0.12" stroke-miterlimit="1.154701" d="M 60 134.289062 L 656 134.289062 "/>
<g fill="rgb(0%, 0%, 0%)" fill-opacity="1">
<use xlink:href="#glyph-0-0-943d228c" x="298.395008" y="462.456001"/>
</g>
<g fill="rgb(0%, 0%, 0%)" fill-opacity="1">
<use xlink:href="#glyph-1-0-943d228c" x="307.06601" y="462.456001"/>
</g>
<g fill="rgb(0%, 0%, 0%)" fill-opacity="1">
<use xlink:href="#glyph-0-1-943d228c" x="314.294006" y="462.456001"/>
</g>
<g fill="rgb(0%, 0%, 0%)" fill-opacity="1">
<use xlink:href="#glyph-2-0-943d228c" x="320.794006" y="462.456001"/>
</g>
<g fill="rgb(0%, 0%, 0%)" fill-opacity="1">
<use xlink:href="#glyph-2-1-943d228c" x="324.408005" y="462.456001"/>
</g>
<g fill="rgb(0%, 0%, 0%)" fill-opacity="1">
<use xlink:href="#glyph-0-0-943d228c" x="328.022007" y="462.456001"/>
</g>
<g fill="rgb(0%, 0%, 0%)" fill-opacity="1">
<use xlink:href="#glyph-1-1-943d228c" x="336.693005" y="462.456001"/>
</g>
<g fill="rgb(0%, 0%, 0%)" fill-opacity="1">
<use xlink:href="#glyph-1-2-943d228c" x="341.022003" y="462.456001"/>
</g>
<g fill="rgb(0%, 0%, 0%)" fill-opacity="1">
<use xlink:href="#glyph-0-2-943d228c" x="348.250004" y="462.456001"/>
</g>
<g fill="rgb(0%, 0%, 0%)" fill-opacity="1">
<use xlink:href="#glyph-0-3-943d228c" x="351.864002" y="462.456001"/>
</g>
<g fill="rgb(0%, 0%, 0%)" fill-opacity="1">
<use xlink:href="#glyph-0-4-943d228c" x="362.693005" y="462.456001"/>
</g>
<g fill="rgb(0%, 0%, 0%)" fill-opacity="1">
<use xlink:href="#glyph-2-2-943d228c" x="371.364002" y="462.456001"/>
</g>
<g fill="rgb(0%, 0%, 0%)" fill-opacity="1">
<use xlink:href="#glyph-2-3-943d228c" x="380.035" y="462.456001"/>
</g>
<g fill="rgb(0%, 0%, 0%)" fill-opacity="1">
<use xlink:href="#glyph-2-4-943d228c" x="388.705997" y="462.456001"/>
</g>
<g fill="rgb(0%, 0%, 0%)" fill-opacity="1">
<use xlink:href="#glyph-0-5-943d228c" x="392.319996" y="462.456001"/>
</g>
<g fill="rgb(0%, 0%, 0%)" fill-opacity="1">
<use xlink:href="#glyph-0-6-943d228c" x="396.648998" y="462.456001"/>
</g>
<g fill="rgb(0%, 0%, 0%)" fill-opacity="1">
<use xlink:href="#glyph-1-3-943d228c" x="403.876995" y="462.456001"/>
</g>
<g fill="rgb(0%, 0%, 0%)" fill-opacity="1">
<use xlink:href="#glyph-2-5-943d228c" x="407.490993" y="462.456001"/>
</g>
<g fill="rgb(0%, 0%, 0%)" fill-opacity="1">
<use xlink:href="#glyph-2-6-943d228c" x="410.376995" y="462.456001"/>
</g>
<g fill="rgb(0%, 0%, 0%)" fill-opacity="1">
<use xlink:href="#glyph-3-0-943d228c" x="83.437232" y="444.311001"/>
</g>
<g fill="rgb(0%, 0%, 0%)" fill-opacity="1">
<use xlink:href="#glyph-4-0-943d228c" x="278.394085" y="444.311001"/>
</g>
<g fill="rgb(0%, 0%, 0%)" fill-opacity="1">
<use xlink:href="#glyph-5-0-943d228c" x="285.622085" y="444.311001"/>
</g>
<g fill="rgb(0%, 0%, 0%)" fill-opacity="1">
<use xlink:href="#glyph-4-1-943d228c" x="292.850084" y="444.311001"/>
</g>
<g fill="rgb(0%, 0%, 0%)" fill-opacity="1">
<use xlink:href="#glyph-4-2-943d228c" x="480.57896" y="444.311001"/>
</g>
<g fill="rgb(0%, 0%, 0%)" fill-opacity="1">
<use xlink:href="#glyph-6-0-943d228c" x="487.80696" y="444.311001"/>
</g>
<g fill="rgb(0%, 0%, 0%)" fill-opacity="1">
<use xlink:href="#glyph-5-0-943d228c" x="495.03496" y="444.311001"/>
</g>
<g fill="rgb(0%, 0%, 0%)" fill-opacity="1">
<use xlink:href="#glyph-7-0-943d228c" x="27.71" y="246.841997"/>
</g>
<g fill="rgb(0%, 0%, 0%)" fill-opacity="1">
<use xlink:href="#glyph-7-1-943d228c" x="27.710001" y="237.455999"/>
</g>
<g fill="rgb(0%, 0%, 0%)" fill-opacity="1">
<use xlink:href="#glyph-8-0-943d228c" x="27.710001" y="230.228"/>
</g>
<g fill="rgb(0%, 0%, 0%)" fill-opacity="1">
<use xlink:href="#glyph-9-0-943d228c" x="27.710001" y="223"/>
</g>
<g fill="rgb(0%, 0%, 0%)" fill-opacity="1">
<use xlink:href="#glyph-10-0-943d228c" x="27.710002" y="215.772"/>
</g>
<g fill="rgb(0%, 0%, 0%)" fill-opacity="1">
<use xlink:href="#glyph-11-0-943d228c" x="42.772" y="411.056684"/>
</g>
<g fill="rgb(0%, 0%, 0%)" fill-opacity="1">
<use xlink:href="#glyph-11-1-943d228c" x="35.544001" y="275.0427"/>
</g>
<g fill="rgb(0%, 0%, 0%)" fill-opacity="1">
<use xlink:href="#glyph-11-0-943d228c" x="42.772" y="275.0427"/>
</g>
<g fill="rgb(0%, 0%, 0%)" fill-opacity="1">
<use xlink:href="#glyph-11-2-943d228c" x="35.544001" y="139.028723"/>
</g>
<g fill="rgb(0%, 0%, 0%)" fill-opacity="1">
<use xlink:href="#glyph-11-0-943d228c" x="42.772" y="139.028723"/>
</g>
<g fill="rgb(0%, 0%, 0%)" fill-opacity="1">
<use xlink:href="#glyph-12-0-943d228c" x="286.129509" y="28.166"/>
</g>
<g fill="rgb(0%, 0%, 0%)" fill-opacity="1">
<use xlink:href="#glyph-12-1-943d228c" x="296.958511" y="28.166"/>
</g>
<g fill="rgb(0%, 0%, 0%)" fill-opacity="1">
<use xlink:href="#glyph-13-0-943d228c" x="305.629509" y="28.166"/>
</g>
<g fill="rgb(0%, 0%, 0%)" fill-opacity="1">
<use xlink:href="#glyph-13-1-943d228c" x="314.300507" y="28.166"/>
</g>
<g fill="rgb(0%, 0%, 0%)" fill-opacity="1">
<use xlink:href="#glyph-13-2-943d228c" x="322.971508" y="28.166"/>
</g>
<g fill="rgb(0%, 0%, 0%)" fill-opacity="1">
<use xlink:href="#glyph-12-2-943d228c" x="326.585506" y="28.166"/>
</g>
<g fill="rgb(0%, 0%, 0%)" fill-opacity="1">
<use xlink:href="#glyph-12-3-943d228c" x="331.642506" y="28.166"/>
</g>
<g fill="rgb(0%, 0%, 0%)" fill-opacity="1">
<use xlink:href="#glyph-13-3-943d228c" x="338.870506" y="28.166"/>
</g>
<g fill="rgb(0%, 0%, 0%)" fill-opacity="1">
<use xlink:href="#glyph-13-4-943d228c" x="343.199505" y="28.166"/>
</g>
<g fill="rgb(0%, 0%, 0%)" fill-opacity="1">
<use xlink:href="#glyph-12-4-943d228c" x="346.813503" y="28.166"/>
</g>
<g fill="rgb(0%, 0%, 0%)" fill-opacity="1">
<use xlink:href="#glyph-14-0-943d228c" x="354.7565" y="28.166"/>
</g>
<g fill="rgb(0%, 0%, 0%)" fill-opacity="1">
<use xlink:href="#glyph-12-5-943d228c" x="358.370499" y="28.166"/>
</g>
<g fill="rgb(0%, 0%, 0%)" fill-opacity="1">
<use xlink:href="#glyph-13-4-943d228c" x="366.313499" y="28.166"/>
</g>
<g fill="rgb(0%, 0%, 0%)" fill-opacity="1">
<use xlink:href="#glyph-12-6-943d228c" x="369.927498" y="28.166"/>
</g>
<g fill="rgb(0%, 0%, 0%)" fill-opacity="1">
<use xlink:href="#glyph-12-7-943d228c" x="377.155495" y="28.166"/>
</g>
<g fill="rgb(0%, 0%, 0%)" fill-opacity="1">
<use xlink:href="#glyph-14-1-943d228c" x="381.484497" y="28.166"/>
</g>
<g fill="rgb(0%, 0%, 0%)" fill-opacity="1">
<use xlink:href="#glyph-13-4-943d228c" x="386.541496" y="28.166"/>
</g>
<g fill="rgb(0%, 0%, 0%)" fill-opacity="1">
<use xlink:href="#glyph-13-5-943d228c" x="390.155495" y="28.166"/>
</g>
<g fill="rgb(0%, 0%, 0%)" fill-opacity="1">
<use xlink:href="#glyph-12-8-943d228c" x="398.098495" y="28.166"/>
</g>
<g fill="rgb(0%, 0%, 0%)" fill-opacity="1">
<use xlink:href="#glyph-14-2-943d228c" x="406.041496" y="28.166"/>
</g>
<g fill="rgb(0%, 0%, 0%)" fill-opacity="1">
<use xlink:href="#glyph-12-9-943d228c" x="410.370499" y="28.166"/>
</g>
<g fill="rgb(0%, 0%, 0%)" fill-opacity="1">
<use xlink:href="#glyph-14-3-943d228c" x="413.984497" y="28.166"/>
</g>
<g fill="rgb(0%, 0%, 0%)" fill-opacity="1">
<use xlink:href="#glyph-12-10-943d228c" x="421.927498" y="28.166"/>
</g>
<path fill-rule="nonzero" fill="rgb(27.450982%, 50.980395%, 70.588237%)" fill-opacity="0.6" d="M 87.089844 406.316406 L 114.179688 406.316406 L 114.179688 52.679688 L 87.089844 52.679688 Z M 87.089844 406.316406 "/>
<path fill-rule="nonzero" fill="rgb(27.450982%, 50.980395%, 70.588237%)" fill-opacity="0.6" d="M 114.183594 406.316406 L 141.273438 406.316406 L 141.273438 311.105469 L 114.183594 311.105469 Z M 114.183594 406.316406 "/>
<path fill-rule="nonzero" fill="rgb(27.450982%, 50.980395%, 70.588237%)" fill-opacity="0.6" d="M 141.273438 406.316406 L 168.363281 406.316406 L 168.363281 379.113281 L 141.273438 379.113281 Z M 141.273438 406.316406 "/>
<path fill-rule="nonzero" fill="rgb(27.450982%, 50.980395%, 70.588237%)" fill-opacity="0.6" d="M 168.363281 406.316406 L 195.453125 406.316406 L 195.453125 392.714844 L 168.363281 392.714844 Z M 168.363281 406.316406 "/>
<path fill-rule="nonzero" fill="rgb(27.450982%, 50.980395%, 70.588237%)" fill-opacity="0.6" d="M 412.183594 406.316406 L 439.273438 406.316406 L 439.273438 392.714844 L 412.183594 392.714844 Z M 412.183594 406.316406 "/>
<path fill-rule="nonzero" fill="rgb(27.450982%, 50.980395%, 70.588237%)" fill-opacity="0.6" d="M 601.816406 406.316406 L 628.90625 406.316406 L 628.90625 392.714844 L 601.816406 392.714844 Z M 601.816406 406.316406 "/>
<g clip-path="url(#clip-0-943d228c)">
<path fill="none" stroke-width="2" stroke-linecap="butt" stroke-linejoin="miter" stroke="rgb(69.803923%, 13.333334%, 13.333334%)" stroke-opacity="1" stroke-dasharray="6 6" stroke-miterlimit="1.154701" d="M 243.683594 424 L 243.683594 35 "/>
</g>
<path fill="none" stroke-width="1" stroke-linecap="butt" stroke-linejoin="miter" stroke="rgb(0%, 0%, 0%)" stroke-opacity="1" stroke-miterlimit="1.154701" d="M 87.050781 424.5 L 87.050781 429.5 "/>
<path fill="none" stroke-width="1" stroke-linecap="butt" stroke-linejoin="miter" stroke="rgb(0%, 0%, 0%)" stroke-opacity="1" stroke-miterlimit="1.154701" d="M 289.234375 424.5 L 289.234375 429.5 "/>
<path fill="none" stroke-width="1" stroke-linecap="butt" stroke-linejoin="miter" stroke="rgb(0%, 0%, 0%)" stroke-opacity="1" stroke-miterlimit="1.154701" d="M 491.421875 424.5 L 491.421875 429.5 "/>
<path fill="none" stroke-width="1" stroke-linecap="butt" stroke-linejoin="miter" stroke="rgb(0%, 0%, 0%)" stroke-opacity="1" stroke-miterlimit="1.154701" d="M 59.5 406.316406 L 54.5 406.316406 "/>
<path fill="none" stroke-width="1" stroke-linecap="butt" stroke-linejoin="miter" stroke="rgb(0%, 0%, 0%)" stroke-opacity="1" stroke-miterlimit="1.154701" d="M 59.5 270.304688 L 54.5 270.304688 "/>
<path fill="none" stroke-width="1" stroke-linecap="butt" stroke-linejoin="miter" stroke="rgb(0%, 0%, 0%)" stroke-opacity="1" stroke-miterlimit="1.154701" d="M 59.5 134.289062 L 54.5 134.289062 "/>
<path fill="none" stroke-width="2" stroke-linecap="butt" stroke-linejoin="miter" stroke="rgb(69.803923%, 13.333334%, 13.333334%)" stroke-opacity="1" stroke-dasharray="6 6" stroke-miterlimit="2" d="M 564.050781 57 L 584.050781 57 "/>
<g fill="rgb(0%, 0%, 0%)" fill-opacity="1">
<use xlink:href="#glyph-4-3-943d228c" x="589.050501" y="61.738501"/>
</g>
<g fill="rgb(0%, 0%, 0%)" fill-opacity="1">
<use xlink:href="#glyph-15-0-943d228c" x="598.436501" y="61.738501"/>
</g>
<g fill="rgb(0%, 0%, 0%)" fill-opacity="1">
<use xlink:href="#glyph-15-1-943d228c" x="605.664499" y="61.738501"/>
</g>
<g fill="rgb(0%, 0%, 0%)" fill-opacity="1">
<use xlink:href="#glyph-16-0-943d228c" x="608.550499" y="61.738501"/>
</g>
<g fill="rgb(0%, 0%, 0%)" fill-opacity="1">
<use xlink:href="#glyph-4-4-943d228c" x="611.436499" y="61.738501"/>
</g>
<g fill="rgb(0%, 0%, 0%)" fill-opacity="1">
<use xlink:href="#glyph-4-5-943d228c" x="615.050499" y="61.738501"/>
</g>
<g fill="rgb(0%, 0%, 0%)" fill-opacity="1">
<use xlink:href="#glyph-4-6-943d228c" x="622.278498" y="61.738501"/>
</g>
<g fill="rgb(0%, 0%, 0%)" fill-opacity="1">
<use xlink:href="#glyph-4-7-943d228c" x="626.607496" y="61.738501"/>
</g>
<g fill="rgb(0%, 0%, 0%)" fill-opacity="1">
<use xlink:href="#glyph-15-2-943d228c" x="633.835497" y="61.738501"/>
</g>
<g fill="rgb(0%, 0%, 0%)" fill-opacity="1">
<use xlink:href="#glyph-15-0-943d228c" x="636.721498" y="61.738501"/>
</g>
<path fill="none" stroke-width="1" stroke-linecap="butt" stroke-linejoin="miter" stroke="rgb(0%, 0%, 0%)" stroke-opacity="1" stroke-miterlimit="1.154701" d="M 59.5 424 L 656.5 424 "/>
<path fill="none" stroke-width="1" stroke-linecap="butt" stroke-linejoin="miter" stroke="rgb(0%, 0%, 0%)" stroke-opacity="1" stroke-miterlimit="1.154701" d="M 60 424.5 L 60 34.5 "/>
<path fill="none" stroke-width="1" stroke-linecap="butt" stroke-linejoin="miter" stroke="rgb(0%, 0%, 0%)" stroke-opacity="1" stroke-miterlimit="1.154701" d="M 59.5 35 L 656.5 35 "/>
<path fill="none" stroke-width="1" stroke-linecap="butt" stroke-linejoin="miter" stroke="rgb(0%, 0%, 0%)" stroke-opacity="1" stroke-miterlimit="1.154701" d="M 656 424.5 L 656 34.5 "/>
</svg>
