<?xml version="1.0" encoding="UTF-8"?>
<svg xmlns="http://www.w3.org/2000/svg" xmlns:xlink="http://www.w3.org/1999/xlink" width="672" height="480" viewBox="0 0 672 480">
<defs>
<g>
<g id="glyph-0-0-934be9c4">
<path d="M 9.921875 0 C 9.921875 0 9.09375 0 9.09375 0 C 9.09375 0 8.78125 -1.34375 8.78125 -1.34375 C 7.78125 -0.234375 6.671875 0.25 5.296875 0.25 C 2.53125 0.25 0.609375 -1.859375 0.609375 -5 C 0.609375 -8.046875 2.390625 -10.453125 5.515625 -10.453125 C 7.859375 -10.453125 9.421875 -9.1875 9.78125 -7.109375 C 9.78125 -7.109375 8.453125 -7.109375 8.453125 -7.109375 C 8.171875 -8.421875 7.0625 -9.3125 5.5 -9.3125 C 3.34375 -9.3125 1.921875 -7.578125 1.921875 -5.0625 C 1.921875 -2.578125 3.265625 -0.890625 5.578125 -0.890625 C 7.4375 -0.890625 8.78125 -2.140625 8.78125 -3.96875 C 8.78125 -3.96875 8.78125 -4.234375 8.78125 -4.234375 C 8.78125 -4.234375 5.671875 -4.234375 5.671875 -4.234375 C 5.671875 -4.234375 5.671875 -5.390625 5.671875 -5.390625 C 5.671875 -5.390625 9.921875 -5.390625 9.921875 -5.390625 C 9.921875 -5.390625 9.921875 0 9.921875 0 Z M 9.921875 0 "/>
</g>
<g id="glyph-0-1-934be9c4">
<path d="M 9.140625 0 C 9.140625 0 7.6875 0 7.6875 0 C 7.6875 0 6.640625 -3.0625 6.640625 -3.0625 C 6.640625 -3.0625 2.703125 -3.0625 2.703125 -3.0625 C 2.703125 -3.0625 1.625 0 1.625 0 C 1.625 0 0.234375 0 0.234375 0 C 0.234375 0 3.875 -10.203125 3.875 -10.203125 C 3.875 -10.203125 5.5625 -10.203125 5.5625 -10.203125 C 5.5625 -10.203125 9.140625 0 9.140625 0 Z M 6.265625 -4.15625 C 6.265625 -4.15625 4.703125 -8.8125 4.703125 -8.8125 C 4.703125 -8.8125 3.03125 -4.15625 3.03125 -4.15625 C 3.03125 -4.15625 6.265625 -4.15625 6.265625 -4.15625 Z M 6.265625 -4.15625 "/>
</g>
<g id="glyph-0-2-934be9c4">
<path d="M 7.078125 -2.890625 C 7.078125 -1.015625 5.765625 0.203125 3.71875 0.203125 C 1.6875 0.203125 0.609375 -0.78125 0.453125 -3 C 0.453125 -3 1.6875 -3 1.6875 -3 C 1.765625 -1.546875 2.421875 -0.875 3.765625 -0.875 C 5.046875 -0.875 5.828125 -1.625 5.828125 -2.875 C 5.828125 -3.96875 5.125 -4.625 3.765625 -4.625 C 3.765625 -4.625 3.09375 -4.625 3.09375 -4.625 C 3.09375 -4.625 3.09375 -5.65625 3.09375 -5.65625 C 5.0625 -5.65625 5.53125 -6.09375 5.53125 -7.15625 C 5.53125 -8.203125 4.875 -8.84375 3.78125 -8.84375 C 2.515625 -8.84375 1.921875 -8.1875 1.890625 -6.71875 C 1.890625 -6.71875 0.65625 -6.71875 0.65625 -6.71875 C 0.703125 -8.828125 1.765625 -9.921875 3.765625 -9.921875 C 5.65625 -9.921875 6.796875 -8.90625 6.796875 -7.203125 C 6.796875 -6.203125 6.328125 -5.5625 5.40625 -5.1875 C 6.59375 -4.78125 7.078125 -4.09375 7.078125 -2.890625 Z M 7.078125 -2.890625 "/>
</g>
<g id="glyph-1-0-934be9c4">
<path d="M 8.640625 -7.203125 C 8.640625 -5.515625 7.46875 -4.328125 5.78125 -4.328125 C 5.78125 -4.328125 2.578125 -4.328125 2.578125 -4.328125 C 2.578125 -4.328125 2.578125 0 2.578125 0 C 2.578125 0 1.28125 0 1.28125 0 C 1.28125 0 1.28125 -10.203125 1.28125 -10.203125 C 1.28125 -10.203125 5.484375 -10.203125 5.484375 -10.203125 C 7.5 -10.203125 8.640625 -9.125 8.640625 -7.203125 Z M 7.28125 -7.265625 C 7.28125 -8.390625 6.53125 -9.0625 5.296875 -9.0625 C 5.296875 -9.0625 2.578125 -9.0625 2.578125 -9.0625 C 2.578125 -9.0625 2.578125 -5.46875 2.578125 -5.46875 C 2.578125 -5.46875 5.296875 -5.46875 5.296875 -5.46875 C 6.53125 -5.46875 7.28125 -6.140625 7.28125 -7.265625 Z M 7.28125 -7.265625 "/>
</g>
<g id="glyph-1-1-934be9c4">
<path d="M 4.859375 0 C 4.859375 0 3.625 0 3.625 0 C 3.625 0 3.625 -7.0625 3.625 -7.0625 C 3.625 -7.0625 1.421875 -7.0625 1.421875 -7.0625 C 1.421875 -7.0625 1.421875 -7.953125 1.421875 -7.953125 C 3.328125 -8.1875 3.609375 -8.40625 4.046875 -9.921875 C 4.046875 -9.921875 4.859375 -9.921875 4.859375 -9.921875 C 4.859375 -9.921875 4.859375 0 4.859375 0 Z M 4.859375 0 "/>
</g>
<g id="glyph-1-2-934be9c4">
<path d="M 7.28125 -2.375 C 7.28125 -2.375 5.8125 -2.375 5.8125 -2.375 C 5.8125 -2.375 5.8125 0 5.8125 0 C 5.8125 0 4.578125 0 4.578125 0 C 4.578125 0 4.578125 -2.375 4.578125 -2.375 C 4.578125 -2.375 0.390625 -2.375 0.390625 -2.375 C 0.390625 -2.375 0.390625 -3.6875 0.390625 -3.6875 C 0.390625 -3.6875 4.90625 -9.921875 4.90625 -9.921875 C 4.90625 -9.921875 5.8125 -9.921875 5.8125 -9.921875 C 5.8125 -9.921875 5.8125 -3.484375 5.8125 -3.484375 C 5.8125 -3.484375 7.28125 -3.484375 7.28125 -3.484375 C 7.28125 -3.484375 7.28125 -2.375 7.28125 -2.375 Z M 4.578125 -3.484375 C 4.578125 -3.484375 4.578125 -7.828125 4.578125 -7.828125 C 4.578125 -7.828125 1.46875 -3.484375 1.46875 -3.484375 C 1.46875 -3.484375 4.578125 -3.484375 4.578125 -3.484375 Z M 4.578125 -3.484375 "/>
</g>
<g id="glyph-2-0-934be9c4">
<path d="M 7.09375 -4.78125 C 7.09375 -1.515625 5.953125 0.203125 3.84375 0.203125 C 1.71875 0.203125 0.609375 -1.515625 0.609375 -4.859375 C 0.609375 -8.1875 1.703125 -9.921875 3.84375 -9.921875 C 6 -9.921875 7.09375 -8.21875 7.09375 -4.78125 Z M 5.84375 -4.890625 C 5.84375 -7.546875 5.1875 -8.828125 3.84375 -8.828125 C 2.515625 -8.828125 1.859375 -7.5625 1.859375 -4.84375 C 1.859375 -2.125 2.515625 -0.8125 3.828125 -0.8125 C 5.1875 -0.8125 5.84375 -2.078125 5.84375 -4.890625 Z M 5.84375 -4.890625 "/>
</g>
<g id="glyph-2-1-934be9c4">
<path d="M 7.15625 -7.015625 C 7.15625 -5.796875 6.4375 -4.765625 5.046875 -4.015625 C 5.046875 -4.015625 3.65625 -3.265625 3.65625 -3.265625 C 2.4375 -2.546875 1.984375 -2.03125 1.859375 -1.21875 C 1.859375 -1.21875 7.078125 -1.21875 7.078125 -1.21875 C 7.078125 -1.21875 7.078125 0 7.078125 0 C 7.078125 0 0.46875 0 0.46875 0 C 0.59375 -2.1875 1.1875 -3.125 3.265625 -4.296875 C 3.265625 -4.296875 4.546875 -5.03125 4.546875 -5.03125 C 5.4375 -5.53125 5.890625 -6.203125 5.890625 -6.984375 C 5.890625 -8.046875 5.046875 -8.84375 3.9375 -8.84375 C 2.71875 -8.84375 2.03125 -8.140625 1.9375 -6.484375 C 1.9375 -6.484375 0.703125 -6.484375 0.703125 -6.484375 C 0.765625 -8.890625 1.953125 -9.921875 3.96875 -9.921875 C 5.859375 -9.921875 7.15625 -8.6875 7.15625 -7.015625 Z M 7.15625 -7.015625 "/>
</g>
<g id="glyph-2-2-934be9c4">
<path d="M 7.28125 -2.375 C 7.28125 -2.375 5.8125 -2.375 5.8125 -2.375 C 5.8125 -2.375 5.8125 0 5.8125 0 C 5.8125 0 4.578125 0 4.578125 0 C 4.578125 0 4.578125 -2.375 4.578125 -2.375 C 4.578125 -2.375 0.390625 -2.375 0.390625 -2.375 C 0.390625 -2.375 0.390625 -3.6875 0.390625 -3.6875 C 0.390625 -3.6875 4.90625 -9.921875 4.90625 -9.921875 C 4.90625 -9.921875 5.8125 -9.921875 5.8125 -9.921875 C 5.8125 -9.921875 5.8125 -3.484375 5.8125 -3.484375 C 5.8125 -3.484375 7.28125 -3.484375 7.28125 -3.484375 C 7.28125 -3.484375 7.28125 -2.375 7.28125 -2.375 Z M 4.578125 -3.484375 C 4.578125 -3.484375 4.578125 -7.828125 4.578125 -7.828125 C 4.578125 -7.828125 1.46875 -3.484375 1.46875 -3.484375 C 1.46875 -3.484375 4.578125 -3.484375 4.578125 -3.484375 Z M 4.578125 -3.484375 "/>
</g>
<g id="glyph-2-3-934be9c4">
<path d="M 7.1875 -3.078125 C 7.1875 -1.140625 5.828125 0.203125 3.9375 0.203125 C 1.671875 0.203125 0.609375 -1.421875 0.609375 -4.515625 C 0.609375 -7.984375 1.84375 -9.921875 4.15625 -9.921875 C 5.671875 -9.921875 6.734375 -8.953125 6.96875 -7.34375 C 6.96875 -7.34375 5.734375 -7.34375 5.734375 -7.34375 C 5.546875 -8.28125 4.9375 -8.828125 4.078125 -8.828125 C 2.65625 -8.828125 1.875 -7.484375 1.859375 -5.0625 C 2.390625 -5.796875 3.15625 -6.171875 4.140625 -6.171875 C 5.921875 -6.171875 7.1875 -4.921875 7.1875 -3.078125 Z M 5.921875 -2.984375 C 5.921875 -4.3125 5.1875 -5.078125 3.984375 -5.078125 C 2.765625 -5.078125 1.9375 -4.28125 1.9375 -3.046875 C 1.9375 -1.78125 2.796875 -0.875 3.953125 -0.875 C 5.078125 -0.875 5.921875 -1.734375 5.921875 -2.984375 Z M 5.921875 -2.984375 "/>
</g>
<g id="glyph-2-4-934be9c4">
<path d="M 7.1875 -2.796875 C 7.1875 -1 5.8125 0.203125 3.84375 0.203125 C 1.890625 0.203125 0.515625 -1 0.515625 -2.8125 C 0.515625 -3.90625 1.078125 -4.671875 2.21875 -5.21875 C 1.203125 -5.859375 0.875 -6.359375 0.875 -7.28125 C 0.875 -8.828125 2.09375 -9.921875 3.84375 -9.921875 C 5.609375 -9.921875 6.828125 -8.828125 6.828125 -7.28125 C 6.828125 -6.34375 6.5 -5.84375 5.46875 -5.21875 C 6.625 -4.671875 7.1875 -3.90625 7.1875 -2.796875 Z M 5.578125 -7.25 C 5.578125 -8.21875 4.90625 -8.828125 3.84375 -8.828125 C 2.8125 -8.828125 2.125 -8.21875 2.125 -7.265625 C 2.125 -6.328125 2.8125 -5.71875 3.84375 -5.71875 C 4.890625 -5.71875 5.578125 -6.328125 5.578125 -7.25 Z M 5.921875 -2.78125 C 5.921875 -3.953125 5.078125 -4.671875 3.84375 -4.671875 C 2.625 -4.671875 1.78125 -3.953125 1.78125 -2.78125 C 1.78125 -1.625 2.625 -0.875 3.828125 -0.875 C 5.078125 -0.875 5.921875 -1.609375 5.921875 -2.78125 Z M 5.921875 -2.78125 "/>
</g>
<g id="glyph-3-0-934be9c4">
<path d="M 7.15625 -7.015625 C 7.15625 -5.796875 6.4375 -4.765625 5.046875 -4.015625 C 5.046875 -4.015625 3.65625 -3.265625 3.65625 -3.265625 C 2.4375 -2.546875 1.984375 -2.03125 1.859375 -1.21875 C 1.859375 -1.21875 7.078125 -1.21875 7.078125 -1.21875 C 7.078125 -1.21875 7.078125 0 7.078125 0 C 7.078125 0 0.46875 0 0.46875 0 C 0.59375 -2.1875 1.1875 -3.125 3.265625 -4.296875 C 3.265625 -4.296875 4.546875 -5.03125 4.546875 -5.03125 C 5.4375 -5.53125 5.890625 -6.203125 5.890625 -6.984375 C 5.890625 -8.046875 5.046875 -8.84375 3.9375 -8.84375 C 2.71875 -8.84375 2.03125 -8.140625 1.9375 -6.484375 C 1.9375 -6.484375 0.703125 -6.484375 0.703125 -6.484375 C 0.765625 -8.890625 1.953125 -9.921875 3.96875 -9.921875 C 5.859375 -9.921875 7.15625 -8.6875 7.15625 -7.015625 Z M 7.15625 -7.015625 "/>
</g>
<g id="glyph-4-0-934be9c4">
<path d="M -9.0625 -8.109375 C -9.0625 -8.109375 -9.0625 -2.5625 -9.0625 -2.5625 C -9.0625 -2.5625 -5.796875 -2.5625 -5.796875 -2.5625 C -5.796875 -2.5625 -5.796875 -7.4375 -5.796875 -7.4375 C -5.796875 -7.4375 -4.640625 -7.4375 -4.640625 -7.4375 C -4.640625 -7.4375 -4.640625 -2.5625 -4.640625 -2.5625 C -4.640625 -2.5625 0 -2.5625 0 -2.5625 C 0 -2.5625 0 -1.265625 0 -1.265625 C 0 -1.265625 -10.203125 -1.265625 -10.203125 -1.265625 C -10.203125 -1.265625 -10.203125 -8.109375 -10.203125 -8.109375 C -10.203125 -8.109375 -9.0625 -8.109375 -9.0625 -8.109375 Z M -9.0625 -8.109375 "/>
</g>
<g id="glyph-4-1-934be9c4">
<path d="M -2.0625 -6.421875 C -0.640625 -6.421875 0.203125 -5.25 0.203125 -3.40625 C 0.203125 -1.484375 -0.546875 -0.53125 -2.234375 -0.46875 C -2.234375 -0.46875 -2.234375 -1.703125 -2.234375 -1.703125 C -1.125 -1.859375 -0.875 -2.453125 -0.875 -3.5 C -0.875 -4.515625 -1.28125 -5.203125 -1.953125 -5.203125 C -2.484375 -5.203125 -2.734375 -4.890625 -2.921875 -4.078125 C -2.921875 -4.078125 -3.1875 -2.984375 -3.1875 -2.984375 C -3.609375 -1.25 -4.15625 -0.65625 -5.3125 -0.65625 C -6.65625 -0.65625 -7.546875 -1.765625 -7.546875 -3.46875 C -7.546875 -5.171875 -6.734375 -6.125 -5.296875 -6.125 C -5.296875 -6.125 -5.296875 -4.90625 -5.296875 -4.90625 C -6.0625 -4.875 -6.46875 -4.375 -6.46875 -3.4375 C -6.46875 -2.484375 -6.03125 -1.875 -5.359375 -1.875 C -4.84375 -1.875 -4.53125 -2.28125 -4.3125 -3.234375 C -4.3125 -3.234375 -4.046875 -4.359375 -4.046875 -4.359375 C -3.703125 -5.8125 -3.15625 -6.421875 -2.0625 -6.421875 Z M -2.0625 -6.421875 "/>
</g>
<g id="glyph-5-0-934be9c4">
<path d="M 0 -6.75 C 0 -6.75 0 -5.703125 0 -5.703125 C 0 -5.703125 -1.140625 -5.703125 -1.140625 -5.703125 C -0.171875 -5.015625 0.203125 -4.328125 0.203125 -3.25 C 0.203125 -1.8125 -0.578125 -0.90625 -1.796875 -0.90625 C -1.796875 -0.90625 -7.34375 -0.90625 -7.34375 -0.90625 C -7.34375 -0.90625 -7.34375 -2.078125 -7.34375 -2.078125 C -7.34375 -2.078125 -2.25 -2.078125 -2.25 -2.078125 C -1.375 -2.078125 -0.8125 -2.65625 -0.8125 -3.578125 C -0.8125 -4.796875 -1.796875 -5.59375 -3.296875 -5.59375 C -3.296875 -5.59375 -7.34375 -5.59375 -7.34375 -5.59375 C -7.34375 -5.59375 -7.34375 -6.75 -7.34375 -6.75 C -7.34375 -6.75 0 -6.75 0 -6.75 Z M 0 -6.75 "/>
</g>
<g id="glyph-6-0-934be9c4">
<path d="M 0 -3.5625 C 0.0625 -3.15625 0.09375 -2.890625 0.09375 -2.609375 C 0.09375 -1.6875 -0.328125 -1.1875 -1.0625 -1.1875 C -1.0625 -1.1875 -6.390625 -1.1875 -6.390625 -1.1875 C -6.390625 -1.1875 -6.390625 -0.203125 -6.390625 -0.203125 C -6.390625 -0.203125 -7.34375 -0.203125 -7.34375 -0.203125 C -7.34375 -0.203125 -7.34375 -1.1875 -7.34375 -1.1875 C -7.34375 -1.1875 -9.359375 -1.1875 -9.359375 -1.1875 C -9.359375 -1.1875 -9.359375 -2.359375 -9.359375 -2.359375 C -9.359375 -2.359375 -7.34375 -2.359375 -7.34375 -2.359375 C -7.34375 -2.359375 -7.34375 -3.5625 -7.34375 -3.5625 C -7.34375 -3.5625 -6.390625 -3.5625 -6.390625 -3.5625 C -6.390625 -3.5625 -6.390625 -2.359375 -6.390625 -2.359375 C -6.390625 -2.359375 -1.578125 -2.359375 -1.578125 -2.359375 C -1.0625 -2.359375 -0.921875 -2.484375 -0.921875 -3 C -0.921875 -3.21875 -0.9375 -3.40625 -0.984375 -3.5625 C -0.984375 -3.5625 0 -3.5625 0 -3.5625 Z M 0 -3.5625 "/>
</g>
<g id="glyph-7-0-934be9c4">
<path d="M 0 -6.75 C 0 -6.75 0 -5.703125 0 -5.703125 C 0 -5.703125 -1.140625 -5.703125 -1.140625 -5.703125 C -0.171875 -5.015625 0.203125 -4.328125 0.203125 -3.25 C 0.203125 -1.8125 -0.578125 -0.90625 -1.796875 -0.90625 C -1.796875 -0.90625 -7.34375 -0.90625 -7.34375 -0.90625 C -7.34375 -0.90625 -7.34375 -2.078125 -7.34375 -2.078125 C -7.34375 -2.078125 -2.25 -2.078125 -2.25 -2.078125 C -1.375 -2.078125 -0.8125 -2.65625 -0.8125 -3.578125 C -0.8125 -4.796875 -1.796875 -5.59375 -3.296875 -5.59375 C -3.296875 -5.59375 -7.34375 -5.59375 -7.34375 -5.59375 C -7.34375 -5.59375 -7.34375 -6.75 -7.34375 -6.75 C -7.34375 -6.75 0 -6.75 0 -6.75 Z M 0 -6.75 "/>
</g>
<g id="glyph-8-0-934be9c4">
<path d="M -6.3125 -4.5 C -6.28125 -2.6875 -5.453125 -2.140625 -3.8125 -2.140625 C -3.8125 -2.140625 0 -2.140625 0 -2.140625 C 0 -2.140625 0 -0.984375 0 -0.984375 C 0 -0.984375 -7.34375 -0.984375 -7.34375 -0.984375 C -7.34375 -0.984375 -7.34375 -2.046875 -7.34375 -2.046875 C -7.34375 -2.046875 -6 -2.046875 -6 -2.046875 C -7.09375 -2.71875 -7.546875 -3.296875 -7.546875 -4.046875 C -7.546875 -4.203125 -7.53125 -4.296875 -7.5 -4.5 C -7.5 -4.5 -6.3125 -4.5 -6.3125 -4.5 Z M -6.3125 -4.5 "/>
</g>
<g id="glyph-8-1-934be9c4">
<path d="M -3.328125 -7.1875 C -3.328125 -7.1875 -3.328125 -1.78125 -3.328125 -1.78125 C -1.65625 -1.8125 -0.875 -2.71875 -0.875 -3.9375 C -0.875 -4.875 -1.265625 -5.53125 -2.21875 -5.859375 C -2.21875 -5.859375 -2.21875 -7.03125 -2.21875 -7.03125 C -0.734375 -6.734375 0.203125 -5.578125 0.203125 -3.890625 C 0.203125 -1.828125 -1.21875 -0.5625 -3.625 -0.5625 C -6.03125 -0.5625 -7.546875 -1.875 -7.546875 -3.921875 C -7.546875 -5.296875 -6.8125 -6.40625 -5.609375 -6.890625 C -5.0625 -7.09375 -4.390625 -7.1875 -3.328125 -7.1875 Z M -4.375 -5.9375 C -5.515625 -5.9375 -6.46875 -5.046875 -6.46875 -3.90625 C -6.46875 -2.734375 -5.59375 -1.90625 -4.28125 -1.8125 C -4.28125 -1.8125 -4.28125 -5.921875 -4.28125 -5.921875 C -4.3125 -5.9375 -4.375 -5.9375 -4.375 -5.9375 Z M -4.375 -5.9375 "/>
</g>
<g id="glyph-8-2-934be9c4">
<path d="M -2.515625 -6.671875 C -0.84375 -6.53125 0.203125 -5.4375 0.203125 -3.6875 C 0.203125 -1.6875 -1.234375 -0.4375 -3.59375 -0.4375 C -6.03125 -0.4375 -7.546875 -1.71875 -7.546875 -3.703125 C -7.546875 -5.328125 -6.65625 -6.453125 -4.875 -6.59375 C -4.875 -6.59375 -4.875 -5.421875 -4.875 -5.421875 C -5.890625 -5.28125 -6.46875 -4.65625 -6.46875 -3.6875 C -6.46875 -2.40625 -5.4375 -1.65625 -3.59375 -1.65625 C -1.859375 -1.65625 -0.875 -2.421875 -0.875 -3.703125 C -0.875 -4.703125 -1.34375 -5.3125 -2.515625 -5.5 C -2.515625 -5.5 -2.515625 -6.671875 -2.515625 -6.671875 Z M -2.515625 -6.671875 "/>
</g>
<g id="glyph-9-0-934be9c4">
</g>
<g id="glyph-10-0-934be9c4">
<path d="M -2.796875 -8.6875 C -0.984375 -8.6875 0.25 -7.296875 0.25 -4.703125 C 0.25 -2.296875 -0.90625 -0.671875 -3.3125 -0.671875 C -3.3125 -0.671875 -3.3125 -1.90625 -3.3125 -1.90625 C -1.859375 -1.90625 -0.890625 -2.859375 -0.890625 -4.78125 C -0.890625 -6.546875 -1.546875 -7.390625 -2.671875 -7.390625 C -3.46875 -7.390625 -3.984375 -6.796875 -4.328125 -5.515625 C -4.328125 -5.515625 -5 -2.984375 -5 -2.984375 C -5.34375 -1.640625 -6.125 -0.984375 -7.375 -0.984375 C -9.21875 -0.984375 -10.453125 -2.359375 -10.453125 -4.609375 C -10.453125 -6.953125 -9.296875 -8.34375 -7.296875 -8.34375 C -7.296875 -8.34375 -7.296875 -7.109375 -7.296875 -7.109375 C -8.625 -7.109375 -9.359375 -6.1875 -9.359375 -4.5625 C -9.359375 -3.1875 -8.59375 -2.28125 -7.5625 -2.28125 C -6.78125 -2.28125 -6.375 -2.734375 -6.046875 -3.96875 C -6.046875 -3.96875 -5.359375 -6.53125 -5.359375 -6.53125 C -4.984375 -7.90625 -4.0625 -8.6875 -2.796875 -8.6875 Z M -2.796875 -8.6875 "/>
</g>
<g id="glyph-11-0-934be9c4">
<path d="M 0 -6.75 C 0 -6.75 0 -5.703125 0 -5.703125 C 0 -5.703125 -1.140625 -5.703125 -1.140625 -5.703125 C -0.171875 -5.015625 0.203125 -4.328125 0.203125 -3.25 C 0.203125 -1.8125 -0.578125 -0.90625 -1.796875 -0.90625 C -1.796875 -0.90625 -7.34375 -0.90625 -7.34375 -0.90625 C -7.34375 -0.90625 -7.34375 -2.078125 -7.34375 -2.078125 C -7.34375 -2.078125 -2.25 -2.078125 -2.25 -2.078125 C -1.375 -2.078125 -0.8125 -2.65625 -0.8125 -3.578125 C -0.8125 -4.796875 -1.796875 -5.59375 -3.296875 -5.59375 C -3.296875 -5.59375 -7.34375 -5.59375 -7.34375 -5.59375 C -7.34375 -5.59375 -7.34375 -6.75 -7.34375 -6.75 C -7.34375 -6.75 0 -6.75 0 -6.75 Z M 0 -6.75 "/>
</g>
<g id="glyph-12-0-934be9c4">
<path d="M -2.515625 -6.671875 C -0.84375 -6.53125 0.203125 -5.4375 0.203125 -3.6875 C 0.203125 -1.6875 -1.234375 -0.4375 -3.59375 -0.4375 C -6.03125 -0.4375 -7.546875 -1.71875 -7.546875 -3.703125 C -7.546875 -5.328125 -6.65625 -6.453125 -4.875 -6.59375 C -4.875 -6.59375 -4.875 -5.421875 -4.875 -5.421875 C -5.890625 -5.28125 -6.46875 -4.65625 -6.46875 -3.6875 C -6.46875 -2.40625 -5.4375 -1.65625 -3.59375 -1.65625 C -1.859375 -1.65625 -0.875 -2.421875 -0.875 -3.703125 C -0.875 -4.703125 -1.34375 -5.3125 -2.515625 -5.5 C -2.515625 -5.5 -2.515625 -6.671875 -2.515625 -6.671875 Z M -2.515625 -6.671875 "/>
</g>
<g id="glyph-13-0-934be9c4">
<path d="M -2.0625 -6.421875 C -0.640625 -6.421875 0.203125 -5.25 0.203125 -3.40625 C 0.203125 -1.484375 -0.546875 -0.53125 -2.234375 -0.46875 C -2.234375 -0.46875 -2.234375 -1.703125 -2.234375 -1.703125 C -1.125 -1.859375 -0.875 -2.453125 -0.875 -3.5 C -0.875 -4.515625 -1.28125 -5.203125 -1.953125 -5.203125 C -2.484375 -5.203125 -2.734375 -4.890625 -2.921875 -4.078125 C -2.921875 -4.078125 -3.1875 -2.984375 -3.1875 -2.984375 C -3.609375 -1.25 -4.15625 -0.65625 -5.3125 -0.65625 C -6.65625 -0.65625 -7.546875 -1.765625 -7.546875 -3.46875 C -7.546875 -5.171875 -6.734375 -6.125 -5.296875 -6.125 C -5.296875 -6.125 -5.296875 -4.90625 -5.296875 -4.90625 C -6.0625 -4.875 -6.46875 -4.375 -6.46875 -3.4375 C -6.46875 -2.484375 -6.03125 -1.875 -5.359375 -1.875 C -4.84375 -1.875 -4.53125 -2.28125 -4.3125 -3.234375 C -4.3125 -3.234375 -4.046875 -4.359375 -4.046875 -4.359375 C -3.703125 -5.8125 -3.15625 -6.421875 -2.0625 -6.421875 Z M -2.0625 -6.421875 "/>
</g>
<g id="glyph-14-0-934be9c4">
<path d="M 4.859375 0 C 4.859375 0 3.625 0 3.625 0 C 3.625 0 3.625 -7.0625 3.625 -7.0625 C 3.625 -7.0625 1.421875 -7.0625 1.421875 -7.0625 C 1.421875 -7.0625 1.421875 -7.953125 1.421875 -7.953125 C 3.328125 -8.1875 3.609375 -8.40625 4.046875 -9.921875 C 4.046875 -9.921875 4.859375 -9.921875 4.859375 -9.921875 C 4.859375 -9.921875 4.859375 0 4.859375 0 Z M 4.859375 0 "/>
</g>
</g>
<clipPath id="clip-0-934be9c4">
<path clip-rule="nonzero" d="M 493 16 L 495 16 L 495 421 L 493 421 Z M 493 16 "/>
</clipPath>
</defs>
<rect x="-67.2" y="-48" width="806.4" height="576" fill="rgb(100%, 100%, 100%)" fill-opacity="1"/>
<path fill-rule="nonzero" fill="rgb(100%, 100%, 100%)" fill-opacity="1" d="M 62 421 L 656 421 L 656 16 L 62 16 Z M 62 421 "/>
<path fill="none" stroke-width="1" stroke-linecap="butt" stroke-linejoin="miter" stroke="rgb(0%, 0%, 0%)" stroke-opacity="0.12" stroke-miterlimit="1.154701" d="M 87.984375 421 L 87.984375 16 "/>
<path fill="none" stroke-width="1" stroke-linecap="butt" stroke-linejoin="miter" stroke="rgb(0%, 0%, 0%)" stroke-opacity="0.12" stroke-miterlimit="1.154701" d="M 223.269531 421 L 223.269531 16 "/>
<path fill="none" stroke-width="1" stroke-linecap="butt" stroke-linejoin="miter" stroke="rgb(0%, 0%, 0%)" stroke-opacity="0.12" stroke-miterlimit="1.154701" d="M 358.550781 421 L 358.550781 16 "/>
<path fill="none" stroke-width="1" stroke-linecap="butt" stroke-linejoin="miter" stroke="rgb(0%, 0%, 0%)" stroke-opacity="0.12" stroke-miterlimit="1.154701" d="M 493.835938 421 L 493.835938 16 "/>
<path fill="none" stroke-width="1" stroke-linecap="butt" stroke-linejoin="miter" stroke="rgb(0%, 0%, 0%)" stroke-opacity="0.12" stroke-miterlimit="1.154701" d="M 629.117188 421 L 629.117188 16 "/>
<path fill="none" stroke-width="1" stroke-linecap="butt" stroke-linejoin="miter" stroke="rgb(0%, 0%, 0%)" stroke-opacity="0.12" stroke-miterlimit="1.154701" d="M 62 393.792969 L 656 393.792969 "/>
<path fill="none" stroke-width="1" stroke-linecap="butt" stroke-linejoin="miter" stroke="rgb(0%, 0%, 0%)" stroke-opacity="0.12" stroke-miterlimit="1.154701" d="M 62 306.808594 L 656 306.808594 "/>
<path fill="none" stroke-width="1" stroke-linecap="butt" stroke-linejoin="miter" stroke="rgb(0%, 0%, 0%)" stroke-opacity="0.12" stroke-miterlimit="1.154701" d="M 62 219.824219 L 656 219.824219 "/>
<path fill="none" stroke-width="1" stroke-linecap="butt" stroke-linejoin="miter" stroke="rgb(0%, 0%, 0%)" stroke-opacity="0.12" stroke-miterlimit="1.154701" d="M 62 132.839844 L 656 132.839844 "/>
<path fill="none" stroke-width="1" stroke-linecap="butt" stroke-linejoin="miter" stroke="rgb(0%, 0%, 0%)" stroke-opacity="0.12" stroke-miterlimit="1.154701" d="M 62 45.855469 L 656 45.855469 "/>
<g fill="rgb(0%, 0%, 0%)" fill-opacity="1">
<use xlink:href="#glyph-0-0-934be9c4" x="344.216" y="461.568"/>
</g>
<g fill="rgb(0%, 0%, 0%)" fill-opacity="1">
<use xlink:href="#glyph-1-0-934be9c4" x="355.108" y="461.568"/>
</g>
<g fill="rgb(0%, 0%, 0%)" fill-opacity="1">
<use xlink:href="#glyph-0-1-934be9c4" x="364.445999" y="461.568"/>
</g>
<g fill="rgb(0%, 0%, 0%)" fill-opacity="1">
<use xlink:href="#glyph-2-0-934be9c4" x="84.093718" y="442.258"/>
</g>
<g fill="rgb(0%, 0%, 0%)" fill-opacity="1">
<use xlink:href="#glyph-1-1-934be9c4" x="219.376768" y="442.258"/>
</g>
<g fill="rgb(0%, 0%, 0%)" fill-opacity="1">
<use xlink:href="#glyph-3-0-934be9c4" x="354.659819" y="442.258"/>
</g>
<g fill="rgb(0%, 0%, 0%)" fill-opacity="1">
<use xlink:href="#glyph-0-2-934be9c4" x="489.942839" y="442.258"/>
</g>
<g fill="rgb(0%, 0%, 0%)" fill-opacity="1">
<use xlink:href="#glyph-1-2-934be9c4" x="625.225859" y="442.258"/>
</g>
<g fill="rgb(0%, 0%, 0%)" fill-opacity="1">
<use xlink:href="#glyph-4-0-934be9c4" x="28.379997" y="267.128994"/>
</g>
<g fill="rgb(0%, 0%, 0%)" fill-opacity="1">
<use xlink:href="#glyph-5-0-934be9c4" x="28.379997" y="258.574993"/>
</g>
<g fill="rgb(0%, 0%, 0%)" fill-opacity="1">
<use xlink:href="#glyph-6-0-934be9c4" x="28.379997" y="250.790997"/>
</g>
<g fill="rgb(0%, 0%, 0%)" fill-opacity="1">
<use xlink:href="#glyph-7-0-934be9c4" x="28.379998" y="246.898996"/>
</g>
<g fill="rgb(0%, 0%, 0%)" fill-opacity="1">
<use xlink:href="#glyph-8-0-934be9c4" x="28.379998" y="239.114996"/>
</g>
<g fill="rgb(0%, 0%, 0%)" fill-opacity="1">
<use xlink:href="#glyph-8-1-934be9c4" x="28.379998" y="234.452998"/>
</g>
<g fill="rgb(0%, 0%, 0%)" fill-opacity="1">
<use xlink:href="#glyph-9-0-934be9c4" x="28.379999" y="226.668998"/>
</g>
<g fill="rgb(0%, 0%, 0%)" fill-opacity="1">
<use xlink:href="#glyph-10-0-934be9c4" x="28.379999" y="222.777"/>
</g>
<g fill="rgb(0%, 0%, 0%)" fill-opacity="1">
<use xlink:href="#glyph-11-0-934be9c4" x="28.38" y="213.439"/>
</g>
<g fill="rgb(0%, 0%, 0%)" fill-opacity="1">
<use xlink:href="#glyph-12-0-934be9c4" x="28.38" y="205.655"/>
</g>
<g fill="rgb(0%, 0%, 0%)" fill-opacity="1">
<use xlink:href="#glyph-8-2-934be9c4" x="28.380001" y="198.655001"/>
</g>
<g fill="rgb(0%, 0%, 0%)" fill-opacity="1">
<use xlink:href="#glyph-8-1-934be9c4" x="28.380001" y="191.655001"/>
</g>
<g fill="rgb(0%, 0%, 0%)" fill-opacity="1">
<use xlink:href="#glyph-4-1-934be9c4" x="28.380002" y="183.871006"/>
</g>
<g fill="rgb(0%, 0%, 0%)" fill-opacity="1">
<use xlink:href="#glyph-13-0-934be9c4" x="28.380002" y="176.871006"/>
</g>
<g fill="rgb(0%, 0%, 0%)" fill-opacity="1">
<use xlink:href="#glyph-14-0-934be9c4" x="36.432" y="398.897418"/>
</g>
<g fill="rgb(0%, 0%, 0%)" fill-opacity="1">
<use xlink:href="#glyph-2-0-934be9c4" x="44.216" y="398.897418"/>
</g>
<g fill="rgb(0%, 0%, 0%)" fill-opacity="1">
<use xlink:href="#glyph-14-0-934be9c4" x="36.432" y="311.912204"/>
</g>
<g fill="rgb(0%, 0%, 0%)" fill-opacity="1">
<use xlink:href="#glyph-2-1-934be9c4" x="44.216" y="311.912204"/>
</g>
<g fill="rgb(0%, 0%, 0%)" fill-opacity="1">
<use xlink:href="#glyph-14-0-934be9c4" x="36.432" y="224.927005"/>
</g>
<g fill="rgb(0%, 0%, 0%)" fill-opacity="1">
<use xlink:href="#glyph-2-2-934be9c4" x="44.216" y="224.927005"/>
</g>
<g fill="rgb(0%, 0%, 0%)" fill-opacity="1">
<use xlink:href="#glyph-14-0-934be9c4" x="36.432" y="137.941776"/>
</g>
<g fill="rgb(0%, 0%, 0%)" fill-opacity="1">
<use xlink:href="#glyph-2-3-934be9c4" x="44.216" y="137.941776"/>
</g>
<g fill="rgb(0%, 0%, 0%)" fill-opacity="1">
<use xlink:href="#glyph-14-0-934be9c4" x="36.432" y="50.956577"/>
</g>
<g fill="rgb(0%, 0%, 0%)" fill-opacity="1">
<use xlink:href="#glyph-2-4-934be9c4" x="44.216" y="50.956577"/>
</g>
<path fill-rule="nonzero" fill="rgb(50.196081%, 50.196081%, 50.196081%)" fill-opacity="1" d="M 94.265625 398.429688 C 94.265625 395.613281 90.035156 395.613281 90.035156 398.429688 C 90.035156 401.25 94.265625 401.25 94.265625 398.429688 Z M 94.265625 398.429688 "/>
<path fill-rule="nonzero" fill="rgb(50.196081%, 50.196081%, 50.196081%)" fill-opacity="1" d="M 99.578125 395.753906 C 99.578125 392.933594 95.347656 392.933594 95.347656 395.753906 C 95.347656 398.574219 99.578125 398.574219 99.578125 395.753906 Z M 99.578125 395.753906 "/>
<path fill-rule="nonzero" fill="rgb(50.196081%, 50.196081%, 50.196081%)" fill-opacity="1" d="M 105.507812 387.476562 C 105.507812 384.65625 101.277344 384.65625 101.277344 387.476562 C 101.277344 390.296875 105.507812 390.296875 105.507812 387.476562 Z M 105.507812 387.476562 "/>
<path fill-rule="nonzero" fill="rgb(50.196081%, 50.196081%, 50.196081%)" fill-opacity="1" d="M 111.617188 382.222656 C 111.617188 379.402344 107.390625 379.402344 107.390625 382.222656 C 107.390625 385.042969 111.617188 385.042969 111.617188 382.222656 Z M 111.617188 382.222656 "/>
<path fill-rule="nonzero" fill="rgb(50.196081%, 50.196081%, 50.196081%)" fill-opacity="1" d="M 118.78125 358.136719 C 118.78125 355.320312 114.550781 355.320312 114.550781 358.136719 C 114.550781 360.957031 118.78125 360.957031 118.78125 358.136719 Z M 118.78125 358.136719 "/>
<path fill-rule="nonzero" fill="rgb(50.196081%, 50.196081%, 50.196081%)" fill-opacity="1" d="M 123.640625 349.28125 C 123.640625 346.460938 119.410156 346.460938 119.410156 349.28125 C 119.410156 352.101562 123.640625 352.101562 123.640625 349.28125 Z M 123.640625 349.28125 "/>
<path fill-rule="nonzero" fill="rgb(50.196081%, 50.196081%, 50.196081%)" fill-opacity="1" d="M 129.347656 402.589844 C 129.347656 399.769531 125.117188 399.769531 125.117188 402.589844 C 125.117188 405.410156 129.347656 405.410156 129.347656 402.589844 Z M 129.347656 402.589844 "/>
<path fill-rule="nonzero" fill="rgb(50.196081%, 50.196081%, 50.196081%)" fill-opacity="1" d="M 134.859375 364.058594 C 134.859375 361.242188 130.628906 361.242188 130.628906 364.058594 C 130.628906 366.878906 134.859375 366.878906 134.859375 364.058594 Z M 134.859375 364.058594 "/>
<path fill-rule="nonzero" fill="rgb(50.196081%, 50.196081%, 50.196081%)" fill-opacity="1" d="M 139.527344 367.59375 C 139.527344 364.773438 135.296875 364.773438 135.296875 367.59375 C 135.296875 370.410156 139.527344 370.410156 139.527344 367.59375 Z M 139.527344 367.59375 "/>
<path fill-rule="nonzero" fill="rgb(50.196081%, 50.196081%, 50.196081%)" fill-opacity="1" d="M 145.921875 369.164062 C 145.921875 366.34375 141.691406 366.34375 141.691406 369.164062 C 141.691406 371.980469 145.921875 371.980469 145.921875 369.164062 Z M 145.921875 369.164062 "/>
<path fill-rule="nonzero" fill="rgb(50.196081%, 50.196081%, 50.196081%)" fill-opacity="1" d="M 152.074219 363.5 C 152.074219 360.679688 147.84375 360.679688 147.84375 363.5 C 147.84375 366.320312 152.074219 366.320312 152.074219 363.5 Z M 152.074219 363.5 "/>
<path fill-rule="nonzero" fill="rgb(50.196081%, 50.196081%, 50.196081%)" fill-opacity="1" d="M 157.234375 370.886719 C 157.234375 368.066406 153.007812 368.066406 153.007812 370.886719 C 153.007812 373.707031 157.234375 373.707031 157.234375 370.886719 Z M 157.234375 370.886719 "/>
<path fill-rule="nonzero" fill="rgb(50.196081%, 50.196081%, 50.196081%)" fill-opacity="1" d="M 163.039062 353.414062 C 163.039062 350.59375 158.808594 350.59375 158.808594 353.414062 C 158.808594 356.234375 163.039062 356.234375 163.039062 353.414062 Z M 163.039062 353.414062 "/>
<path fill-rule="nonzero" fill="rgb(50.196081%, 50.196081%, 50.196081%)" fill-opacity="1" d="M 168.996094 338.605469 C 168.996094 335.785156 164.765625 335.785156 164.765625 338.605469 C 164.765625 341.425781 168.996094 341.425781 168.996094 338.605469 Z M 168.996094 338.605469 "/>
<path fill-rule="nonzero" fill="rgb(50.196081%, 50.196081%, 50.196081%)" fill-opacity="1" d="M 174.992188 353.421875 C 174.992188 350.601562 170.761719 350.601562 170.761719 353.421875 C 170.761719 356.242188 174.992188 356.242188 174.992188 353.421875 Z M 174.992188 353.421875 "/>
<path fill-rule="nonzero" fill="rgb(50.196081%, 50.196081%, 50.196081%)" fill-opacity="1" d="M 179.566406 358.804688 C 179.566406 355.984375 175.335938 355.984375 175.335938 358.804688 C 175.335938 361.621094 179.566406 361.621094 179.566406 358.804688 Z M 179.566406 358.804688 "/>
<path fill-rule="nonzero" fill="rgb(50.196081%, 50.196081%, 50.196081%)" fill-opacity="1" d="M 185.953125 344.710938 C 185.953125 341.890625 181.722656 341.890625 181.722656 344.710938 C 181.722656 347.53125 185.953125 347.53125 185.953125 344.710938 Z M 185.953125 344.710938 "/>
<path fill-rule="nonzero" fill="rgb(50.196081%, 50.196081%, 50.196081%)" fill-opacity="1" d="M 191.296875 353.945312 C 191.296875 351.125 187.066406 351.125 187.066406 353.945312 C 187.066406 356.765625 191.296875 356.765625 191.296875 353.945312 Z M 191.296875 353.945312 "/>
<path fill-rule="nonzero" fill="rgb(50.196081%, 50.196081%, 50.196081%)" fill-opacity="1" d="M 198.179688 341.140625 C 198.179688 338.320312 193.949219 338.320312 193.949219 341.140625 C 193.949219 343.960938 198.179688 343.960938 198.179688 341.140625 Z M 198.179688 341.140625 "/>
<path fill-rule="nonzero" fill="rgb(50.196081%, 50.196081%, 50.196081%)" fill-opacity="1" d="M 204.214844 346.410156 C 204.214844 343.589844 199.984375 343.589844 199.984375 346.410156 C 199.984375 349.226562 204.214844 349.226562 204.214844 346.410156 Z M 204.214844 346.410156 "/>
<path fill-rule="nonzero" fill="rgb(50.196081%, 50.196081%, 50.196081%)" fill-opacity="1" d="M 208.882812 336.703125 C 208.882812 333.882812 204.65625 333.882812 204.65625 336.703125 C 204.65625 339.523438 208.882812 339.523438 208.882812 336.703125 Z M 208.882812 336.703125 "/>
<path fill-rule="nonzero" fill="rgb(50.196081%, 50.196081%, 50.196081%)" fill-opacity="1" d="M 215.179688 348.523438 C 215.179688 345.703125 210.949219 345.703125 210.949219 348.523438 C 210.949219 351.34375 215.179688 351.34375 215.179688 348.523438 Z M 215.179688 348.523438 "/>
<path fill-rule="nonzero" fill="rgb(50.196081%, 50.196081%, 50.196081%)" fill-opacity="1" d="M 220.613281 345.867188 C 220.613281 343.046875 216.386719 343.046875 216.386719 345.867188 C 216.386719 348.6875 220.613281 348.6875 220.613281 345.867188 Z M 220.613281 345.867188 "/>
<path fill-rule="nonzero" fill="rgb(50.196081%, 50.196081%, 50.196081%)" fill-opacity="1" d="M 227.570312 328.425781 C 227.570312 325.605469 223.339844 325.605469 223.339844 328.425781 C 223.339844 331.246094 227.570312 331.246094 227.570312 328.425781 Z M 227.570312 328.425781 "/>
<path fill-rule="nonzero" fill="rgb(50.196081%, 50.196081%, 50.196081%)" fill-opacity="1" d="M 232.441406 334.875 C 232.441406 332.054688 228.210938 332.054688 228.210938 334.875 C 228.210938 337.695312 232.441406 337.695312 232.441406 334.875 Z M 232.441406 334.875 "/>
<path fill-rule="nonzero" fill="rgb(50.196081%, 50.196081%, 50.196081%)" fill-opacity="1" d="M 239.011719 318.613281 C 239.011719 315.792969 234.785156 315.792969 234.785156 318.613281 C 234.785156 321.433594 239.011719 321.433594 239.011719 318.613281 Z M 239.011719 318.613281 "/>
<path fill-rule="nonzero" fill="rgb(50.196081%, 50.196081%, 50.196081%)" fill-opacity="1" d="M 244.371094 318.507812 C 244.371094 315.6875 240.144531 315.6875 240.144531 318.507812 C 240.144531 321.328125 244.371094 321.328125 244.371094 318.507812 Z M 244.371094 318.507812 "/>
<path fill-rule="nonzero" fill="rgb(50.196081%, 50.196081%, 50.196081%)" fill-opacity="1" d="M 250.054688 302.078125 C 250.054688 299.257812 245.824219 299.257812 245.824219 302.078125 C 245.824219 304.898438 250.054688 304.898438 250.054688 302.078125 Z M 250.054688 302.078125 "/>
<path fill-rule="nonzero" fill="rgb(50.196081%, 50.196081%, 50.196081%)" fill-opacity="1" d="M 255.855469 293.480469 C 255.855469 290.664062 251.625 290.664062 251.625 293.480469 C 251.625 296.300781 255.855469 296.300781 255.855469 293.480469 Z M 255.855469 293.480469 "/>
<path fill-rule="nonzero" fill="rgb(50.196081%, 50.196081%, 50.196081%)" fill-opacity="1" d="M 261.8125 312.714844 C 261.8125 309.894531 257.582031 309.894531 257.582031 312.714844 C 257.582031 315.535156 261.8125 315.535156 261.8125 312.714844 Z M 261.8125 312.714844 "/>
<path fill-rule="nonzero" fill="rgb(50.196081%, 50.196081%, 50.196081%)" fill-opacity="1" d="M 267.777344 296.054688 C 267.777344 293.234375 263.546875 293.234375 263.546875 296.054688 C 263.546875 298.875 267.777344 298.875 267.777344 296.054688 Z M 267.777344 296.054688 "/>
<path fill-rule="nonzero" fill="rgb(50.196081%, 50.196081%, 50.196081%)" fill-opacity="1" d="M 274.042969 277.859375 C 274.042969 275.039062 269.8125 275.039062 269.8125 277.859375 C 269.8125 280.675781 274.042969 280.675781 274.042969 277.859375 Z M 274.042969 277.859375 "/>
<path fill-rule="nonzero" fill="rgb(50.196081%, 50.196081%, 50.196081%)" fill-opacity="1" d="M 278.449219 313.765625 C 278.449219 310.945312 274.21875 310.945312 274.21875 313.765625 C 274.21875 316.585938 278.449219 316.585938 278.449219 313.765625 Z M 278.449219 313.765625 "/>
<path fill-rule="nonzero" fill="rgb(50.196081%, 50.196081%, 50.196081%)" fill-opacity="1" d="M 285.351562 289.066406 C 285.351562 286.246094 281.121094 286.246094 281.121094 289.066406 C 281.121094 291.886719 285.351562 291.886719 285.351562 289.066406 Z M 285.351562 289.066406 "/>
<path fill-rule="nonzero" fill="rgb(50.196081%, 50.196081%, 50.196081%)" fill-opacity="1" d="M 290.238281 321.242188 C 290.238281 318.421875 286.007812 318.421875 286.007812 321.242188 C 286.007812 324.0625 290.238281 324.0625 290.238281 321.242188 Z M 290.238281 321.242188 "/>
<path fill-rule="nonzero" fill="rgb(50.196081%, 50.196081%, 50.196081%)" fill-opacity="1" d="M 296.90625 287.625 C 296.90625 284.804688 292.679688 284.804688 292.679688 287.625 C 292.679688 290.441406 296.90625 290.441406 296.90625 287.625 Z M 296.90625 287.625 "/>
<path fill-rule="nonzero" fill="rgb(50.196081%, 50.196081%, 50.196081%)" fill-opacity="1" d="M 302.988281 309.824219 C 302.988281 307.003906 298.757812 307.003906 298.757812 309.824219 C 298.757812 312.644531 302.988281 312.644531 302.988281 309.824219 Z M 302.988281 309.824219 "/>
<path fill-rule="nonzero" fill="rgb(50.196081%, 50.196081%, 50.196081%)" fill-opacity="1" d="M 308.128906 287.28125 C 308.128906 284.460938 303.898438 284.460938 303.898438 287.28125 C 303.898438 290.101562 308.128906 290.101562 308.128906 287.28125 Z M 308.128906 287.28125 "/>
<path fill-rule="nonzero" fill="rgb(50.196081%, 50.196081%, 50.196081%)" fill-opacity="1" d="M 315.011719 286.445312 C 315.011719 283.625 310.78125 283.625 310.78125 286.445312 C 310.78125 289.265625 315.011719 289.265625 315.011719 286.445312 Z M 315.011719 286.445312 "/>
<path fill-rule="nonzero" fill="rgb(50.196081%, 50.196081%, 50.196081%)" fill-opacity="1" d="M 319.632812 292.402344 C 319.632812 289.585938 315.402344 289.585938 315.402344 292.402344 C 315.402344 295.222656 319.632812 295.222656 319.632812 292.402344 Z M 319.632812 292.402344 "/>
<path fill-rule="nonzero" fill="rgb(50.196081%, 50.196081%, 50.196081%)" fill-opacity="1" d="M 325.390625 295.121094 C 325.390625 292.304688 321.160156 292.304688 321.160156 295.121094 C 321.160156 297.941406 325.390625 297.941406 325.390625 295.121094 Z M 325.390625 295.121094 "/>
<path fill-rule="nonzero" fill="rgb(50.196081%, 50.196081%, 50.196081%)" fill-opacity="1" d="M 332.199219 260.484375 C 332.199219 257.664062 327.96875 257.664062 327.96875 260.484375 C 327.96875 263.304688 332.199219 263.304688 332.199219 260.484375 Z M 332.199219 260.484375 "/>
<path fill-rule="nonzero" fill="rgb(50.196081%, 50.196081%, 50.196081%)" fill-opacity="1" d="M 337.410156 294.082031 C 337.410156 291.261719 333.179688 291.261719 333.179688 294.082031 C 333.179688 296.898438 337.410156 296.898438 337.410156 294.082031 Z M 337.410156 294.082031 "/>
<path fill-rule="nonzero" fill="rgb(50.196081%, 50.196081%, 50.196081%)" fill-opacity="1" d="M 342.003906 265.226562 C 342.003906 262.40625 337.773438 262.40625 337.773438 265.226562 C 337.773438 268.046875 342.003906 268.046875 342.003906 265.226562 Z M 342.003906 265.226562 "/>
<path fill-rule="nonzero" fill="rgb(50.196081%, 50.196081%, 50.196081%)" fill-opacity="1" d="M 349.164062 260.519531 C 349.164062 257.699219 344.933594 257.699219 344.933594 260.519531 C 344.933594 263.339844 349.164062 263.339844 349.164062 260.519531 Z M 349.164062 260.519531 "/>
<path fill-rule="nonzero" fill="rgb(50.196081%, 50.196081%, 50.196081%)" fill-opacity="1" d="M 354.023438 264.15625 C 354.023438 261.335938 349.792969 261.335938 349.792969 264.15625 C 349.792969 266.976562 354.023438 266.976562 354.023438 264.15625 Z M 354.023438 264.15625 "/>
<path fill-rule="nonzero" fill="rgb(50.196081%, 50.196081%, 50.196081%)" fill-opacity="1" d="M 360.519531 256.246094 C 360.519531 253.425781 356.289062 253.425781 356.289062 256.246094 C 356.289062 259.066406 360.519531 259.066406 360.519531 256.246094 Z M 360.519531 256.246094 "/>
<path fill-rule="nonzero" fill="rgb(50.196081%, 50.196081%, 50.196081%)" fill-opacity="1" d="M 366.917969 278.699219 C 366.917969 275.878906 362.6875 275.878906 362.6875 278.699219 C 362.6875 281.519531 366.917969 281.519531 366.917969 278.699219 Z M 366.917969 278.699219 "/>
<path fill-rule="nonzero" fill="rgb(50.196081%, 50.196081%, 50.196081%)" fill-opacity="1" d="M 371.972656 241.199219 C 371.972656 238.378906 367.742188 238.378906 367.742188 241.199219 C 367.742188 244.019531 371.972656 244.019531 371.972656 241.199219 Z M 371.972656 241.199219 "/>
<path fill-rule="nonzero" fill="rgb(50.196081%, 50.196081%, 50.196081%)" fill-opacity="1" d="M 378.054688 267.742188 C 378.054688 264.921875 373.828125 264.921875 373.828125 267.742188 C 373.828125 270.5625 378.054688 270.5625 378.054688 267.742188 Z M 378.054688 267.742188 "/>
<path fill-rule="nonzero" fill="rgb(50.196081%, 50.196081%, 50.196081%)" fill-opacity="1" d="M 383.753906 235.15625 C 383.753906 232.335938 379.523438 232.335938 379.523438 235.15625 C 379.523438 237.972656 383.753906 237.972656 383.753906 235.15625 Z M 383.753906 235.15625 "/>
<path fill-rule="nonzero" fill="rgb(50.196081%, 50.196081%, 50.196081%)" fill-opacity="1" d="M 389.375 224.929688 C 389.375 222.109375 385.144531 222.109375 385.144531 224.929688 C 385.144531 227.75 389.375 227.75 389.375 224.929688 Z M 389.375 224.929688 "/>
<path fill-rule="nonzero" fill="rgb(50.196081%, 50.196081%, 50.196081%)" fill-opacity="1" d="M 394.527344 247.585938 C 394.527344 244.765625 390.296875 244.765625 390.296875 247.585938 C 390.296875 250.40625 394.527344 250.40625 394.527344 247.585938 Z M 394.527344 247.585938 "/>
<path fill-rule="nonzero" fill="rgb(50.196081%, 50.196081%, 50.196081%)" fill-opacity="1" d="M 400.640625 247.398438 C 400.640625 244.578125 396.410156 244.578125 396.410156 247.398438 C 396.410156 250.21875 400.640625 250.21875 400.640625 247.398438 Z M 400.640625 247.398438 "/>
<path fill-rule="nonzero" fill="rgb(50.196081%, 50.196081%, 50.196081%)" fill-opacity="1" d="M 407.132812 261.339844 C 407.132812 258.519531 402.902344 258.519531 402.902344 261.339844 C 402.902344 264.160156 407.132812 264.160156 407.132812 261.339844 Z M 407.132812 261.339844 "/>
<path fill-rule="nonzero" fill="rgb(50.196081%, 50.196081%, 50.196081%)" fill-opacity="1" d="M 411.136719 230.300781 C 411.136719 227.480469 406.90625 227.480469 406.90625 230.300781 C 406.90625 233.121094 411.136719 233.121094 411.136719 230.300781 Z M 411.136719 230.300781 "/>
<path fill-rule="nonzero" fill="rgb(50.196081%, 50.196081%, 50.196081%)" fill-opacity="1" d="M 417.390625 246.757812 C 417.390625 243.9375 413.160156 243.9375 413.160156 246.757812 C 413.160156 249.578125 417.390625 249.578125 417.390625 246.757812 Z M 417.390625 246.757812 "/>
<path fill-rule="nonzero" fill="rgb(50.196081%, 50.196081%, 50.196081%)" fill-opacity="1" d="M 423.558594 237.300781 C 423.558594 234.480469 419.328125 234.480469 419.328125 237.300781 C 419.328125 240.121094 423.558594 240.121094 423.558594 237.300781 Z M 423.558594 237.300781 "/>
<path fill-rule="nonzero" fill="rgb(50.196081%, 50.196081%, 50.196081%)" fill-opacity="1" d="M 429.761719 226.273438 C 429.761719 223.453125 425.53125 223.453125 425.53125 226.273438 C 425.53125 229.09375 429.761719 229.09375 429.761719 226.273438 Z M 429.761719 226.273438 "/>
<path fill-rule="nonzero" fill="rgb(50.196081%, 50.196081%, 50.196081%)" fill-opacity="1" d="M 435.234375 211.191406 C 435.234375 208.371094 431.003906 208.371094 431.003906 211.191406 C 431.003906 214.011719 435.234375 214.011719 435.234375 211.191406 Z M 435.234375 211.191406 "/>
<path fill-rule="nonzero" fill="rgb(50.196081%, 50.196081%, 50.196081%)" fill-opacity="1" d="M 440.558594 207.390625 C 440.558594 204.570312 436.328125 204.570312 436.328125 207.390625 C 436.328125 210.210938 440.558594 210.210938 440.558594 207.390625 Z M 440.558594 207.390625 "/>
<path fill-rule="nonzero" fill="rgb(50.196081%, 50.196081%, 50.196081%)" fill-opacity="1" d="M 447.128906 239.011719 C 447.128906 236.191406 442.898438 236.191406 442.898438 239.011719 C 442.898438 241.832031 447.128906 241.832031 447.128906 239.011719 Z M 447.128906 239.011719 "/>
<path fill-rule="nonzero" fill="rgb(50.196081%, 50.196081%, 50.196081%)" fill-opacity="1" d="M 453.785156 221.796875 C 453.785156 218.976562 449.554688 218.976562 449.554688 221.796875 C 449.554688 224.617188 453.785156 224.617188 453.785156 221.796875 Z M 453.785156 221.796875 "/>
<path fill-rule="nonzero" fill="rgb(50.196081%, 50.196081%, 50.196081%)" fill-opacity="1" d="M 458.78125 236.984375 C 458.78125 234.164062 454.550781 234.164062 454.550781 236.984375 C 454.550781 239.800781 458.78125 239.800781 458.78125 236.984375 Z M 458.78125 236.984375 "/>
<path fill-rule="nonzero" fill="rgb(50.196081%, 50.196081%, 50.196081%)" fill-opacity="1" d="M 464.320312 217.65625 C 464.320312 214.835938 460.089844 214.835938 460.089844 217.65625 C 460.089844 220.472656 464.320312 220.472656 464.320312 217.65625 Z M 464.320312 217.65625 "/>
<path fill-rule="nonzero" fill="rgb(50.196081%, 50.196081%, 50.196081%)" fill-opacity="1" d="M 471.199219 214.035156 C 471.199219 211.21875 466.96875 211.21875 466.96875 214.035156 C 466.96875 216.855469 471.199219 216.855469 471.199219 214.035156 Z M 471.199219 214.035156 "/>
<path fill-rule="nonzero" fill="rgb(50.196081%, 50.196081%, 50.196081%)" fill-opacity="1" d="M 475.691406 206.019531 C 475.691406 203.199219 471.460938 203.199219 471.460938 206.019531 C 471.460938 208.839844 475.691406 208.839844 475.691406 206.019531 Z M 475.691406 206.019531 "/>
<path fill-rule="nonzero" fill="rgb(50.196081%, 50.196081%, 50.196081%)" fill-opacity="1" d="M 481.613281 235.46875 C 481.613281 232.648438 477.382812 232.648438 477.382812 235.46875 C 477.382812 238.289062 481.613281 238.289062 481.613281 235.46875 Z M 481.613281 235.46875 "/>
<path fill-rule="nonzero" fill="rgb(50.196081%, 50.196081%, 50.196081%)" fill-opacity="1" d="M 487.183594 180.386719 C 487.183594 177.566406 482.953125 177.566406 482.953125 180.386719 C 482.953125 183.207031 487.183594 183.207031 487.183594 180.386719 Z M 487.183594 180.386719 "/>
<path fill-rule="nonzero" fill="rgb(50.196081%, 50.196081%, 50.196081%)" fill-opacity="1" d="M 493.429688 193.183594 C 493.429688 190.363281 489.199219 190.363281 489.199219 193.183594 C 489.199219 196.003906 493.429688 196.003906 493.429688 193.183594 Z M 493.429688 193.183594 "/>
<path fill-rule="nonzero" fill="rgb(50.196081%, 50.196081%, 50.196081%)" fill-opacity="1" d="M 498.007812 112.257812 C 498.007812 109.4375 493.777344 109.4375 493.777344 112.257812 C 493.777344 115.078125 498.007812 115.078125 498.007812 112.257812 Z M 498.007812 112.257812 "/>
<path fill-rule="nonzero" fill="rgb(50.196081%, 50.196081%, 50.196081%)" fill-opacity="1" d="M 503.679688 119.332031 C 503.679688 116.515625 499.449219 116.515625 499.449219 119.332031 C 499.449219 122.152344 503.679688 122.152344 503.679688 119.332031 Z M 503.679688 119.332031 "/>
<path fill-rule="nonzero" fill="rgb(50.196081%, 50.196081%, 50.196081%)" fill-opacity="1" d="M 509.285156 85.421875 C 509.285156 82.601562 505.054688 82.601562 505.054688 85.421875 C 505.054688 88.242188 509.285156 88.242188 509.285156 85.421875 Z M 509.285156 85.421875 "/>
<path fill-rule="nonzero" fill="rgb(50.196081%, 50.196081%, 50.196081%)" fill-opacity="1" d="M 514.378906 99.335938 C 514.378906 96.515625 510.148438 96.515625 510.148438 99.335938 C 510.148438 102.15625 514.378906 102.15625 514.378906 99.335938 Z M 514.378906 99.335938 "/>
<path fill-rule="nonzero" fill="rgb(50.196081%, 50.196081%, 50.196081%)" fill-opacity="1" d="M 518.914062 87.441406 C 518.914062 84.621094 514.6875 84.621094 514.6875 87.441406 C 514.6875 90.257812 518.914062 90.257812 518.914062 87.441406 Z M 518.914062 87.441406 "/>
<path fill-rule="nonzero" fill="rgb(50.196081%, 50.196081%, 50.196081%)" fill-opacity="1" d="M 526.054688 91.398438 C 526.054688 88.578125 521.824219 88.578125 521.824219 91.398438 C 521.824219 94.21875 526.054688 94.21875 526.054688 91.398438 Z M 526.054688 91.398438 "/>
<path fill-rule="nonzero" fill="rgb(50.196081%, 50.196081%, 50.196081%)" fill-opacity="1" d="M 529.765625 108.949219 C 529.765625 106.128906 525.535156 106.128906 525.535156 108.949219 C 525.535156 111.765625 529.765625 111.765625 529.765625 108.949219 Z M 529.765625 108.949219 "/>
<path fill-rule="nonzero" fill="rgb(50.196081%, 50.196081%, 50.196081%)" fill-opacity="1" d="M 535.988281 91.121094 C 535.988281 88.300781 531.757812 88.300781 531.757812 91.121094 C 531.757812 93.9375 535.988281 93.9375 535.988281 91.121094 Z M 535.988281 91.121094 "/>
<path fill-rule="nonzero" fill="rgb(50.196081%, 50.196081%, 50.196081%)" fill-opacity="1" d="M 541.789062 57.683594 C 541.789062 54.863281 537.558594 54.863281 537.558594 57.683594 C 537.558594 60.503906 541.789062 60.503906 541.789062 57.683594 Z M 541.789062 57.683594 "/>
<path fill-rule="nonzero" fill="rgb(50.196081%, 50.196081%, 50.196081%)" fill-opacity="1" d="M 547.167969 76.148438 C 547.167969 73.328125 542.941406 73.328125 542.941406 76.148438 C 542.941406 78.96875 547.167969 78.96875 547.167969 76.148438 Z M 547.167969 76.148438 "/>
<path fill-rule="nonzero" fill="rgb(50.196081%, 50.196081%, 50.196081%)" fill-opacity="1" d="M 552.417969 74.019531 C 552.417969 71.199219 548.1875 71.199219 548.1875 74.019531 C 548.1875 76.835938 552.417969 76.835938 552.417969 74.019531 Z M 552.417969 74.019531 "/>
<path fill-rule="nonzero" fill="rgb(50.196081%, 50.196081%, 50.196081%)" fill-opacity="1" d="M 558.632812 90.570312 C 558.632812 87.75 554.402344 87.75 554.402344 90.570312 C 554.402344 93.390625 558.632812 93.390625 558.632812 90.570312 Z M 558.632812 90.570312 "/>
<path fill-rule="nonzero" fill="rgb(50.196081%, 50.196081%, 50.196081%)" fill-opacity="1" d="M 563.734375 85.992188 C 563.734375 83.171875 559.503906 83.171875 559.503906 85.992188 C 559.503906 88.8125 563.734375 88.8125 563.734375 85.992188 Z M 563.734375 85.992188 "/>
<path fill-rule="nonzero" fill="rgb(50.196081%, 50.196081%, 50.196081%)" fill-opacity="1" d="M 568.589844 101.289062 C 568.589844 98.46875 564.359375 98.46875 564.359375 101.289062 C 564.359375 104.109375 568.589844 104.109375 568.589844 101.289062 Z M 568.589844 101.289062 "/>
<path fill-rule="nonzero" fill="rgb(50.196081%, 50.196081%, 50.196081%)" fill-opacity="1" d="M 574.496094 103.808594 C 574.496094 100.988281 570.265625 100.988281 570.265625 103.808594 C 570.265625 106.625 574.496094 106.625 574.496094 103.808594 Z M 574.496094 103.808594 "/>
<path fill-rule="nonzero" fill="rgb(50.196081%, 50.196081%, 50.196081%)" fill-opacity="1" d="M 580.585938 58.636719 C 580.585938 55.816406 576.355469 55.816406 576.355469 58.636719 C 576.355469 61.457031 580.585938 61.457031 580.585938 58.636719 Z M 580.585938 58.636719 "/>
<path fill-rule="nonzero" fill="rgb(50.196081%, 50.196081%, 50.196081%)" fill-opacity="1" d="M 584.941406 73.789062 C 584.941406 70.972656 580.710938 70.972656 580.710938 73.789062 C 580.710938 76.609375 584.941406 76.609375 584.941406 73.789062 Z M 584.941406 73.789062 "/>
<path fill-rule="nonzero" fill="rgb(50.196081%, 50.196081%, 50.196081%)" fill-opacity="1" d="M 590.046875 70.175781 C 590.046875 67.355469 585.816406 67.355469 585.816406 70.175781 C 585.816406 72.996094 590.046875 72.996094 590.046875 70.175781 Z M 590.046875 70.175781 "/>
<path fill-rule="nonzero" fill="rgb(50.196081%, 50.196081%, 50.196081%)" fill-opacity="1" d="M 595.941406 41.835938 C 595.941406 39.015625 591.710938 39.015625 591.710938 41.835938 C 591.710938 44.65625 595.941406 44.65625 595.941406 41.835938 Z M 595.941406 41.835938 "/>
<path fill-rule="nonzero" fill="rgb(50.196081%, 50.196081%, 50.196081%)" fill-opacity="1" d="M 601.613281 46.707031 C 601.613281 43.886719 597.382812 43.886719 597.382812 46.707031 C 597.382812 49.527344 601.613281 49.527344 601.613281 46.707031 Z M 601.613281 46.707031 "/>
<path fill-rule="nonzero" fill="rgb(50.196081%, 50.196081%, 50.196081%)" fill-opacity="1" d="M 606.558594 58.933594 C 606.558594 56.113281 602.332031 56.113281 602.332031 58.933594 C 602.332031 61.753906 606.558594 61.753906 606.558594 58.933594 Z M 606.558594 58.933594 "/>
<path fill-rule="nonzero" fill="rgb(50.196081%, 50.196081%, 50.196081%)" fill-opacity="1" d="M 612.03125 67.117188 C 612.03125 64.300781 607.800781 64.300781 607.800781 67.117188 C 607.800781 69.9375 612.03125 69.9375 612.03125 67.117188 Z M 612.03125 67.117188 "/>
<path fill-rule="nonzero" fill="rgb(50.196081%, 50.196081%, 50.196081%)" fill-opacity="1" d="M 617.640625 34.410156 C 617.640625 31.589844 613.410156 31.589844 613.410156 34.410156 C 613.410156 37.230469 617.640625 37.230469 617.640625 34.410156 Z M 617.640625 34.410156 "/>
<path fill-rule="nonzero" fill="rgb(50.196081%, 50.196081%, 50.196081%)" fill-opacity="1" d="M 625.09375 50.210938 C 625.09375 47.390625 620.863281 47.390625 620.863281 50.210938 C 620.863281 53.03125 625.09375 53.03125 625.09375 50.210938 Z M 625.09375 50.210938 "/>
<path fill="none" stroke-width="2" stroke-linecap="butt" stroke-linejoin="miter" stroke="rgb(0%, 0%, 100%)" stroke-opacity="1" stroke-miterlimit="2" d="M 89 393.15625 L 89.8125 392.792969 L 90.621094 392.425781 L 91.433594 392.0625 L 92.246094 391.695312 L 93.054688 391.328125 L 93.867188 390.960938 L 94.679688 390.589844 L 95.492188 390.222656 L 96.300781 389.855469 L 97.925781 389.113281 L 98.734375 388.746094 L 100.359375 388.003906 L 101.167969 387.632812 L 101.980469 387.257812 L 102.792969 386.886719 L 103.601562 386.515625 L 106.039062 385.390625 L 106.847656 385.019531 L 108.472656 384.269531 L 109.28125 383.890625 L 110.90625 383.140625 L 111.714844 382.761719 L 112.527344 382.386719 L 113.339844 382.007812 L 114.148438 381.628906 L 114.960938 381.253906 L 115.773438 380.875 L 116.582031 380.496094 L 117.394531 380.117188 L 118.207031 379.734375 L 119.019531 379.355469 L 119.828125 378.976562 L 120.640625 378.59375 L 121.453125 378.214844 L 122.261719 377.832031 L 123.074219 377.453125 L 123.886719 377.070312 L 124.695312 376.6875 L 126.320312 375.921875 L 127.128906 375.539062 L 128.753906 374.773438 L 129.566406 374.386719 L 130.375 374.003906 L 131.1875 373.621094 L 132 373.234375 L 132.808594 372.851562 L 134.433594 372.078125 L 135.242188 371.695312 L 136.867188 370.921875 L 137.675781 370.535156 L 140.113281 369.375 L 140.921875 368.988281 L 141.734375 368.601562 L 142.546875 368.210938 L 143.355469 367.824219 L 144.167969 367.4375 L 144.980469 367.046875 L 145.789062 366.660156 L 146.601562 366.269531 L 147.414062 365.882812 L 148.222656 365.492188 L 149.035156 365.101562 L 149.847656 364.714844 L 150.660156 364.324219 L 151.46875 363.933594 L 153.09375 363.152344 L 153.902344 362.761719 L 155.527344 361.980469 L 156.335938 361.589844 L 157.960938 360.808594 L 158.769531 360.417969 L 159.582031 360.027344 L 160.394531 359.632812 L 161.203125 359.242188 L 162.015625 358.851562 L 162.828125 358.457031 L 163.640625 358.066406 L 164.449219 357.675781 L 165.261719 357.28125 L 166.074219 356.890625 L 166.882812 356.496094 L 167.695312 356.105469 L 168.507812 355.710938 L 169.316406 355.316406 L 170.128906 354.925781 L 170.941406 354.53125 L 171.75 354.136719 L 172.5625 353.746094 L 174.1875 352.957031 L 174.996094 352.566406 L 176.621094 351.777344 L 177.429688 351.382812 L 179.054688 350.59375 L 179.863281 350.203125 L 181.488281 349.414062 L 182.296875 349.019531 L 184.734375 347.835938 L 185.542969 347.441406 L 187.167969 346.652344 L 187.976562 346.257812 L 189.601562 345.46875 L 190.410156 345.074219 L 192.035156 344.285156 L 192.84375 343.890625 L 193.65625 343.496094 L 194.46875 343.097656 L 195.28125 342.703125 L 196.089844 342.308594 L 197.714844 341.519531 L 198.523438 341.125 L 200.148438 340.335938 L 200.957031 339.941406 L 201.769531 339.542969 L 202.582031 339.148438 L 203.390625 338.753906 L 205.015625 337.964844 L 205.824219 337.570312 L 208.261719 336.386719 L 209.070312 335.988281 L 210.695312 335.199219 L 211.503906 334.804688 L 213.128906 334.015625 L 213.9375 333.621094 L 215.5625 332.832031 L 216.371094 332.4375 L 217.996094 331.648438 L 218.808594 331.25 L 219.617188 330.855469 L 221.242188 330.066406 L 222.050781 329.671875 L 223.675781 328.882812 L 224.484375 328.488281 L 225.296875 328.097656 L 226.109375 327.703125 L 226.917969 327.308594 L 229.355469 326.125 L 230.164062 325.730469 L 231.789062 324.941406 L 232.597656 324.546875 L 233.410156 324.15625 L 234.222656 323.761719 L 235.03125 323.367188 L 236.65625 322.578125 L 237.464844 322.1875 L 239.089844 321.398438 L 239.902344 321.007812 L 240.710938 320.613281 L 241.523438 320.21875 L 242.335938 319.828125 L 243.144531 319.433594 L 243.957031 319.039062 L 244.769531 318.648438 L 245.578125 318.253906 L 246.390625 317.863281 L 247.203125 317.46875 L 248.011719 317.078125 L 248.824219 316.683594 L 249.636719 316.292969 L 250.445312 315.898438 L 251.257812 315.507812 L 252.070312 315.113281 L 252.882812 314.722656 L 253.691406 314.332031 L 254.503906 313.9375 L 255.316406 313.546875 L 256.125 313.15625 L 256.9375 312.761719 L 257.75 312.371094 L 258.558594 311.980469 L 259.371094 311.589844 L 260.183594 311.195312 L 260.992188 310.804688 L 263.429688 309.632812 L 264.238281 309.242188 L 265.863281 308.460938 L 266.671875 308.066406 L 267.484375 307.675781 L 268.296875 307.289062 L 269.105469 306.898438 L 270.730469 306.117188 L 271.539062 305.726562 L 273.976562 304.554688 L 274.785156 304.164062 L 275.597656 303.777344 L 276.410156 303.386719 L 277.21875 302.996094 L 278.03125 302.605469 L 278.84375 302.21875 L 279.652344 301.828125 L 280.464844 301.4375 L 281.277344 301.050781 L 282.085938 300.660156 L 282.898438 300.273438 L 283.710938 299.882812 L 284.519531 299.496094 L 285.332031 299.105469 L 286.144531 298.71875 L 286.957031 298.328125 L 287.765625 297.941406 L 288.578125 297.550781 L 289.390625 297.164062 L 290.199219 296.777344 L 291.011719 296.386719 L 291.824219 296 L 292.632812 295.613281 L 293.445312 295.222656 L 294.257812 294.835938 L 295.066406 294.449219 L 295.878906 294.0625 L 296.691406 293.671875 L 297.503906 293.285156 L 298.3125 292.898438 L 299.9375 292.125 L 300.746094 291.738281 L 302.371094 290.964844 L 303.179688 290.578125 L 304.804688 289.804688 L 305.613281 289.417969 L 308.050781 288.257812 L 308.859375 287.871094 L 310.484375 287.097656 L 311.292969 286.710938 L 312.105469 286.324219 L 312.917969 285.941406 L 313.726562 285.554688 L 315.351562 284.78125 L 316.160156 284.394531 L 316.972656 284.011719 L 318.597656 283.238281 L 319.40625 282.855469 L 321.03125 282.082031 L 321.839844 281.699219 L 323.464844 280.925781 L 324.273438 280.542969 L 325.085938 280.15625 L 325.898438 279.773438 L 326.707031 279.386719 L 327.519531 279.003906 L 328.332031 278.617188 L 329.140625 278.230469 L 329.953125 277.847656 L 330.765625 277.460938 L 331.578125 277.078125 L 332.386719 276.691406 L 333.199219 276.308594 L 334.011719 275.921875 L 334.820312 275.539062 L 335.632812 275.15625 L 336.445312 274.769531 L 337.253906 274.386719 L 338.066406 274 L 338.878906 273.617188 L 339.6875 273.230469 L 341.3125 272.464844 L 342.125 272.078125 L 342.933594 271.695312 L 343.746094 271.308594 L 344.558594 270.925781 L 345.367188 270.539062 L 346.992188 269.773438 L 347.800781 269.386719 L 348.613281 269.003906 L 349.425781 268.617188 L 350.234375 268.234375 L 351.046875 267.851562 L 351.859375 267.464844 L 352.671875 267.082031 L 353.480469 266.695312 L 355.105469 265.929688 L 355.914062 265.542969 L 356.726562 265.160156 L 357.539062 264.773438 L 358.347656 264.390625 L 359.160156 264.007812 L 359.972656 263.621094 L 360.78125 263.238281 L 361.59375 262.851562 L 362.40625 262.46875 L 363.21875 262.082031 L 364.027344 261.699219 L 364.839844 261.3125 L 365.652344 260.929688 L 366.460938 260.542969 L 367.273438 260.160156 L 368.085938 259.773438 L 368.894531 259.390625 L 370.519531 258.617188 L 371.328125 258.234375 L 372.953125 257.460938 L 373.761719 257.078125 L 375.386719 256.304688 L 376.199219 255.921875 L 377.007812 255.535156 L 378.632812 254.761719 L 379.441406 254.378906 L 381.066406 253.605469 L 381.875 253.21875 L 383.5 252.445312 L 384.308594 252.058594 L 386.746094 250.898438 L 387.554688 250.511719 L 389.179688 249.738281 L 389.988281 249.351562 L 390.800781 248.960938 L 391.613281 248.574219 L 392.421875 248.1875 L 393.234375 247.800781 L 394.046875 247.410156 L 394.855469 247.023438 L 395.667969 246.632812 L 396.480469 246.246094 L 397.292969 245.855469 L 398.101562 245.46875 L 398.914062 245.078125 L 399.726562 244.691406 L 400.535156 244.300781 L 402.160156 243.519531 L 402.96875 243.132812 L 404.59375 242.351562 L 405.402344 241.960938 L 407.027344 241.179688 L 407.835938 240.789062 L 408.648438 240.398438 L 409.460938 240.003906 L 410.273438 239.613281 L 411.082031 239.222656 L 411.894531 238.828125 L 412.707031 238.4375 L 413.515625 238.042969 L 414.328125 237.652344 L 415.140625 237.257812 L 415.949219 236.867188 L 417.574219 236.078125 L 418.382812 235.683594 L 420.820312 234.5 L 421.628906 234.105469 L 423.253906 233.316406 L 424.0625 232.917969 L 424.875 232.523438 L 425.6875 232.125 L 426.496094 231.730469 L 428.121094 230.933594 L 428.929688 230.539062 L 431.367188 229.34375 L 432.175781 228.945312 L 432.988281 228.542969 L 433.800781 228.144531 L 434.609375 227.746094 L 435.421875 227.34375 L 436.234375 226.945312 L 437.042969 226.542969 L 438.667969 225.738281 L 439.476562 225.339844 L 440.289062 224.9375 L 441.101562 224.53125 L 441.914062 224.128906 L 442.722656 223.726562 L 443.535156 223.324219 L 444.347656 222.917969 L 445.15625 222.515625 L 446.78125 221.703125 L 447.589844 221.296875 L 449.214844 220.484375 L 450.023438 220.078125 L 450.835938 219.671875 L 451.648438 219.261719 L 452.460938 218.855469 L 453.269531 218.445312 L 454.894531 217.625 L 455.703125 217.214844 L 457.328125 216.394531 L 458.136719 215.984375 L 459.761719 215.15625 L 460.570312 214.746094 L 462.195312 213.917969 L 463.003906 213.503906 L 463.816406 213.089844 L 464.628906 212.671875 L 465.441406 212.257812 L 466.25 211.839844 L 467.875 211.003906 L 468.683594 210.585938 L 470.308594 209.75 L 471.117188 209.328125 L 471.929688 208.910156 L 472.742188 208.488281 L 473.550781 208.066406 L 475.988281 206.800781 L 476.796875 206.375 L 477.609375 205.953125 L 478.421875 205.527344 L 479.230469 205.101562 L 480.855469 204.25 L 481.664062 203.820312 L 482.476562 203.394531 L 483.289062 202.964844 L 484.097656 202.535156 L 485.722656 201.675781 L 486.535156 201.242188 L 487.34375 200.8125 L 488.96875 199.945312 L 489.777344 199.511719 L 490.589844 199.078125 L 491.402344 198.640625 L 492.210938 198.207031 L 493.023438 197.769531 "/>
<path fill="none" stroke-width="2" stroke-linecap="butt" stroke-linejoin="miter" stroke="rgb(0%, 0%, 100%)" stroke-opacity="1" stroke-miterlimit="2" d="M 493.835938 197.332031 L 493.835938 123.109375 L 494.105469 122.429688 L 494.375 121.757812 L 494.648438 121.097656 L 494.917969 120.445312 L 495.1875 119.800781 L 495.460938 119.167969 L 495.730469 118.542969 L 496 117.929688 L 496.273438 117.324219 L 496.542969 116.730469 L 496.816406 116.140625 L 497.085938 115.5625 L 497.355469 114.996094 L 497.628906 114.433594 L 497.898438 113.882812 L 498.167969 113.339844 L 498.441406 112.804688 L 498.710938 112.28125 L 498.980469 111.761719 L 499.253906 111.253906 L 499.523438 110.753906 L 499.792969 110.257812 L 500.066406 109.773438 L 500.335938 109.296875 L 500.605469 108.828125 L 500.878906 108.367188 L 501.148438 107.914062 L 501.417969 107.46875 L 501.691406 107.03125 L 501.960938 106.597656 L 502.230469 106.175781 L 502.503906 105.757812 L 502.773438 105.347656 L 503.042969 104.949219 L 503.316406 104.554688 L 503.585938 104.164062 L 503.855469 103.785156 L 504.128906 103.410156 L 504.398438 103.042969 L 504.667969 102.683594 L 504.941406 102.328125 L 505.210938 101.980469 L 505.480469 101.640625 L 505.753906 101.304688 L 506.023438 100.976562 L 506.296875 100.652344 L 506.566406 100.335938 L 506.835938 100.027344 L 507.109375 99.722656 L 507.378906 99.425781 L 507.648438 99.132812 L 507.921875 98.847656 L 508.191406 98.566406 L 508.460938 98.289062 L 508.734375 98.019531 L 509.003906 97.757812 L 509.273438 97.5 L 509.546875 97.246094 L 509.816406 96.996094 L 510.085938 96.753906 L 510.359375 96.515625 L 510.898438 96.054688 L 511.171875 95.832031 L 511.710938 95.402344 L 511.984375 95.195312 L 512.253906 94.992188 L 512.523438 94.792969 L 512.796875 94.597656 L 513.066406 94.40625 L 513.335938 94.222656 L 513.609375 94.039062 L 514.148438 93.6875 L 514.421875 93.519531 L 514.691406 93.355469 L 514.960938 93.195312 L 515.234375 93.039062 L 515.503906 92.886719 L 515.777344 92.734375 L 516.046875 92.589844 L 516.316406 92.449219 L 516.589844 92.3125 L 516.859375 92.175781 L 517.128906 92.046875 L 517.402344 91.917969 L 517.671875 91.792969 L 517.941406 91.671875 L 518.214844 91.554688 L 518.484375 91.441406 L 518.753906 91.332031 L 519.027344 91.222656 L 519.296875 91.117188 L 519.566406 91.015625 L 519.839844 90.917969 L 520.109375 90.820312 L 520.378906 90.726562 L 520.652344 90.636719 L 520.921875 90.546875 L 521.191406 90.460938 L 521.464844 90.378906 L 522.003906 90.222656 L 522.277344 90.144531 L 522.816406 90.003906 L 523.089844 89.933594 L 523.359375 89.867188 L 523.628906 89.804688 L 523.902344 89.742188 L 524.171875 89.679688 L 524.445312 89.625 L 524.714844 89.566406 L 524.984375 89.511719 L 525.257812 89.460938 L 525.527344 89.410156 L 525.796875 89.363281 L 526.070312 89.316406 L 526.339844 89.269531 L 526.609375 89.226562 L 526.882812 89.183594 L 527.421875 89.105469 L 527.695312 89.066406 L 528.234375 88.996094 L 528.507812 88.960938 L 529.046875 88.898438 L 529.320312 88.867188 L 529.589844 88.835938 L 529.859375 88.808594 L 530.132812 88.78125 L 530.402344 88.753906 L 530.671875 88.730469 L 530.945312 88.707031 L 531.484375 88.660156 L 531.757812 88.636719 L 532.027344 88.617188 L 532.296875 88.59375 L 532.570312 88.574219 L 532.839844 88.554688 L 533.109375 88.539062 L 533.382812 88.519531 L 533.652344 88.5 L 533.925781 88.484375 L 534.195312 88.464844 L 534.464844 88.449219 L 534.738281 88.433594 L 535.277344 88.402344 L 535.550781 88.386719 L 536.089844 88.355469 L 536.363281 88.339844 L 536.902344 88.308594 L 537.175781 88.292969 L 537.714844 88.261719 L 537.988281 88.246094 L 538.527344 88.214844 L 538.800781 88.199219 L 539.339844 88.167969 L 539.613281 88.148438 L 540.152344 88.117188 L 540.425781 88.097656 L 540.695312 88.078125 L 540.964844 88.0625 L 541.238281 88.042969 L 541.507812 88.023438 L 541.777344 88 L 542.050781 87.980469 L 542.320312 87.957031 L 542.59375 87.9375 L 543.132812 87.890625 L 543.40625 87.867188 L 543.675781 87.839844 L 543.945312 87.816406 L 544.21875 87.789062 L 544.757812 87.734375 L 545.03125 87.707031 L 545.570312 87.644531 L 545.84375 87.613281 L 546.113281 87.582031 L 546.382812 87.546875 L 546.65625 87.511719 L 547.195312 87.441406 L 547.46875 87.402344 L 548.007812 87.324219 L 548.28125 87.28125 L 548.550781 87.242188 L 548.820312 87.199219 L 549.09375 87.152344 L 549.363281 87.109375 L 549.632812 87.0625 L 549.90625 87.011719 L 550.175781 86.964844 L 550.445312 86.914062 L 550.71875 86.859375 L 550.988281 86.808594 L 551.257812 86.753906 L 551.53125 86.699219 L 551.800781 86.640625 L 552.074219 86.582031 L 552.34375 86.523438 L 552.613281 86.460938 L 552.886719 86.398438 L 553.15625 86.335938 L 553.425781 86.269531 L 553.699219 86.203125 L 554.238281 86.0625 L 554.511719 85.992188 L 555.050781 85.84375 L 555.324219 85.769531 L 555.863281 85.613281 L 556.136719 85.53125 L 556.675781 85.367188 L 556.949219 85.28125 L 557.21875 85.195312 L 557.488281 85.105469 L 557.761719 85.015625 L 558.03125 84.925781 L 558.300781 84.832031 L 558.574219 84.738281 L 559.113281 84.542969 L 559.386719 84.441406 L 559.925781 84.238281 L 560.199219 84.132812 L 560.46875 84.027344 L 560.742188 83.917969 L 561.28125 83.699219 L 561.554688 83.585938 L 561.824219 83.472656 L 562.09375 83.355469 L 562.367188 83.238281 L 562.90625 82.996094 L 563.179688 82.875 L 563.449219 82.75 L 563.71875 82.621094 L 563.992188 82.496094 L 564.261719 82.367188 L 564.53125 82.234375 L 564.804688 82.101562 L 565.074219 81.964844 L 565.34375 81.832031 L 565.617188 81.691406 L 565.886719 81.554688 L 566.15625 81.410156 L 566.429688 81.269531 L 566.699219 81.125 L 566.96875 80.976562 L 567.242188 80.832031 L 567.511719 80.679688 L 567.78125 80.53125 L 568.054688 80.378906 L 568.59375 80.066406 L 568.867188 79.910156 L 569.40625 79.589844 L 569.679688 79.429688 L 569.949219 79.265625 L 570.222656 79.097656 L 570.492188 78.933594 L 570.761719 78.765625 L 571.035156 78.59375 L 571.574219 78.25 L 571.847656 78.074219 L 572.386719 77.722656 L 572.660156 77.542969 L 572.929688 77.363281 L 573.199219 77.179688 L 573.472656 76.996094 L 574.011719 76.628906 L 574.285156 76.441406 L 574.554688 76.25 L 574.824219 76.0625 L 575.097656 75.871094 L 575.367188 75.675781 L 575.636719 75.484375 L 575.910156 75.289062 L 576.179688 75.089844 L 576.449219 74.894531 L 576.722656 74.695312 L 576.992188 74.492188 L 577.261719 74.292969 L 577.535156 74.089844 L 577.804688 73.886719 L 578.074219 73.679688 L 578.347656 73.472656 L 578.617188 73.265625 L 578.890625 73.058594 L 579.429688 72.636719 L 579.703125 72.425781 L 579.972656 72.214844 L 580.242188 72 L 580.515625 71.785156 L 581.054688 71.355469 L 581.328125 71.136719 L 581.867188 70.699219 L 582.140625 70.480469 L 582.410156 70.261719 L 582.679688 70.039062 L 582.953125 69.816406 L 583.492188 69.371094 L 583.765625 69.148438 L 584.304688 68.695312 L 584.578125 68.472656 L 585.117188 68.019531 L 585.390625 67.789062 L 585.660156 67.5625 L 585.929688 67.332031 L 586.203125 67.105469 L 586.742188 66.644531 L 587.015625 66.417969 L 587.554688 65.957031 L 587.828125 65.726562 L 588.097656 65.496094 L 588.371094 65.261719 L 588.910156 64.800781 L 589.183594 64.570312 L 589.453125 64.339844 L 589.722656 64.105469 L 589.996094 63.875 L 590.535156 63.414062 L 590.808594 63.183594 L 591.347656 62.722656 L 591.621094 62.492188 L 592.160156 62.03125 L 592.433594 61.804688 L 592.703125 61.574219 L 592.972656 61.347656 L 593.246094 61.117188 L 593.785156 60.664062 L 594.058594 60.4375 L 594.328125 60.210938 L 594.597656 59.988281 L 594.871094 59.765625 L 595.140625 59.539062 L 595.410156 59.316406 L 595.683594 59.097656 L 595.953125 58.875 L 596.222656 58.65625 L 596.496094 58.4375 L 596.765625 58.21875 L 597.039062 58.003906 L 597.578125 57.574219 L 597.851562 57.359375 L 598.390625 56.9375 L 598.664062 56.726562 L 599.203125 56.3125 L 599.476562 56.109375 L 600.015625 55.703125 L 600.289062 55.503906 L 600.558594 55.304688 L 600.828125 55.109375 L 601.101562 54.914062 L 601.371094 54.71875 L 601.640625 54.527344 L 601.914062 54.339844 L 602.453125 53.964844 L 602.726562 53.78125 L 603.265625 53.421875 L 603.539062 53.246094 L 603.808594 53.070312 L 604.078125 52.898438 L 604.351562 52.730469 L 604.621094 52.5625 L 604.890625 52.398438 L 605.164062 52.234375 L 605.433594 52.074219 L 605.703125 51.917969 L 605.976562 51.765625 L 606.246094 51.613281 L 606.519531 51.464844 L 606.789062 51.316406 L 607.058594 51.175781 L 607.332031 51.035156 L 607.601562 50.898438 L 607.871094 50.765625 L 608.144531 50.636719 L 608.414062 50.507812 L 608.683594 50.382812 L 608.957031 50.261719 L 609.226562 50.144531 L 609.496094 50.03125 L 609.769531 49.921875 L 610.039062 49.816406 L 610.308594 49.714844 L 610.582031 49.613281 L 611.121094 49.425781 L 611.394531 49.339844 L 611.933594 49.175781 L 612.207031 49.101562 L 612.476562 49.03125 L 612.746094 48.964844 L 613.019531 48.902344 L 613.289062 48.84375 L 613.558594 48.789062 L 613.832031 48.738281 L 614.371094 48.652344 L 614.644531 48.617188 L 614.914062 48.589844 L 615.1875 48.5625 L 615.726562 48.523438 L 616 48.515625 L 616.269531 48.507812 L 616.539062 48.507812 L 616.8125 48.511719 L 617.351562 48.535156 L 617.625 48.558594 L 617.894531 48.582031 L 618.164062 48.617188 L 618.4375 48.652344 L 618.707031 48.695312 L 618.976562 48.746094 L 619.25 48.800781 L 619.519531 48.859375 L 619.789062 48.929688 L 620.0625 49 L 620.601562 49.164062 L 620.875 49.257812 L 621.144531 49.355469 L 621.414062 49.460938 L 621.6875 49.570312 L 622.226562 49.8125 L 622.5 49.945312 L 622.769531 50.082031 L 623.039062 50.230469 L 623.3125 50.382812 L 623.582031 50.539062 L 623.851562 50.707031 L 624.125 50.882812 L 624.394531 51.0625 L 624.667969 51.25 L 624.9375 51.445312 L 625.207031 51.652344 L 625.480469 51.863281 L 625.75 52.082031 L 626.019531 52.308594 L 626.292969 52.542969 L 626.5625 52.785156 L 626.832031 53.039062 L 627.105469 53.296875 L 627.375 53.5625 L 627.644531 53.839844 L 627.917969 54.125 L 628.1875 54.417969 L 628.457031 54.71875 L 628.730469 55.027344 L 629 55.347656 "/>
<g clip-path="url(#clip-0-934be9c4)">
<path fill="none" stroke-width="1.5" stroke-linecap="butt" stroke-linejoin="miter" stroke="rgb(0%, 0%, 0%)" stroke-opacity="1" stroke-dasharray="4.5 4.5" stroke-miterlimit="1.154701" d="M 493.835938 421 L 493.835938 16 "/>
</g>
<path fill="none" stroke-width="1" stroke-linecap="butt" stroke-linejoin="miter" stroke="rgb(0%, 0%, 0%)" stroke-opacity="1" stroke-miterlimit="1.154701" d="M 87.984375 421.5 L 87.984375 426.5 "/>
<path fill="none" stroke-width="1" stroke-linecap="butt" stroke-linejoin="miter" stroke="rgb(0%, 0%, 0%)" stroke-opacity="1" stroke-miterlimit="1.154701" d="M 223.269531 421.5 L 223.269531 426.5 "/>
<path fill="none" stroke-width="1" stroke-linecap="butt" stroke-linejoin="miter" stroke="rgb(0%, 0%, 0%)" stroke-opacity="1" stroke-miterlimit="1.154701" d="M 358.550781 421.5 L 358.550781 426.5 "/>
<path fill="none" stroke-width="1" stroke-linecap="butt" stroke-linejoin="miter" stroke="rgb(0%, 0%, 0%)" stroke-opacity="1" stroke-miterlimit="1.154701" d="M 493.835938 421.5 L 493.835938 426.5 "/>
<path fill="none" stroke-width="1" stroke-linecap="butt" stroke-linejoin="miter" stroke="rgb(0%, 0%, 0%)" stroke-opacity="1" stroke-miterlimit="1.154701" d="M 629.117188 421.5 L 629.117188 426.5 "/>
<path fill="none" stroke-width="1" stroke-linecap="butt" stroke-linejoin="miter" stroke="rgb(0%, 0%, 0%)" stroke-opacity="1" stroke-miterlimit="1.154701" d="M 61.5 393.792969 L 56.5 393.792969 "/>
<path fill="none" stroke-width="1" stroke-linecap="butt" stroke-linejoin="miter" stroke="rgb(0%, 0%, 0%)" stroke-opacity="1" stroke-miterlimit="1.154701" d="M 61.5 306.808594 L 56.5 306.808594 "/>
<path fill="none" stroke-width="1" stroke-linecap="butt" stroke-linejoin="miter" stroke="rgb(0%, 0%, 0%)" stroke-opacity="1" stroke-miterlimit="1.154701" d="M 61.5 219.824219 L 56.5 219.824219 "/>
<path fill="none" stroke-width="1" stroke-linecap="butt" stroke-linejoin="miter" stroke="rgb(0%, 0%, 0%)" stroke-opacity="1" stroke-miterlimit="1.154701" d="M 61.5 132.839844 L 56.5 132.839844 "/>
<path fill="none" stroke-width="1" stroke-linecap="butt" stroke-linejoin="miter" stroke="rgb(0%, 0%, 0%)" stroke-opacity="1" stroke-miterlimit="1.154701" d="M 61.5 45.855469 L 56.5 45.855469 "/>
<path fill="none" stroke-width="1" stroke-linecap="butt" stroke-linejoin="miter" stroke="rgb(0%, 0%, 0%)" stroke-opacity="1" stroke-miterlimit="1.154701" d="M 61.5 421 L 656.5 421 "/>
<path fill="none" stroke-width="1" stroke-linecap="butt" stroke-linejoin="miter" stroke="rgb(0%, 0%, 0%)" stroke-opacity="1" stroke-miterlimit="1.154701" d="M 62 421.5 L 62 15.5 "/>
<path fill="none" stroke-width="1" stroke-linecap="butt" stroke-linejoin="miter" stroke="rgb(0%, 0%, 0%)" stroke-opacity="1" stroke-miterlimit="1.154701" d="M 61.5 16 L 656.5 16 "/>
<path fill="none" stroke-width="1" stroke-linecap="butt" stroke-linejoin="miter" stroke="rgb(0%, 0%, 0%)" stroke-opacity="1" stroke-miterlimit="1.154701" d="M 656 421.5 L 656 15.5 "/>
</svg>
